<?xml version="1.0" encoding="UTF-8"?>
<svg id="Layer_1" xmlns="http://www.w3.org/2000/svg" version="1.1" viewBox="0 0 600 600">
  <!-- Generator: Adobe Illustrator 30.3.0, SVG Export Plug-In . SVG Version: 2.1.3 Build 182)  -->
  <defs>
    <style>
      .st0 {
        fill: #f1f1f1;
      }

      .st1 {
        stroke: #fdde2d;
        stroke-miterlimit: 10;
        stroke-width: 9px;
      }

      .st1, .st2, .st3 {
        fill: none;
      }

      .st4 {
        fill: #fff;
      }

      .st2 {
        stroke: #fff;
      }

      .st2, .st3 {
        stroke-linecap: round;
        stroke-linejoin: round;
        stroke-width: 12px;
      }

      .st5 {
        fill: #fdde2d;
      }

      .st3 {
        stroke: #2b363b;
      }
    </style>
  </defs>
  <g id="CIRCLE">
    <circle class="st4" cx="301.9" cy="295.8" r="257.3"/>
  </g>
  <g id="ICONS">
    <rect class="st4" x="186.2" y="300.3" width="227.2" height="20"/>
    <rect class="st4" x="277.4" y="219" width="42.2" height="25.8"/>
    <path class="st4" d="M297.9,244.1c-91.4,0-113.7,53.6-113.7,53.6v.4h227.3v-.4s-22.3-53.6-113.7-53.6h0Z"/>
    <g>
      <path class="st5" d="M416.1,319.9v107c0,14.8-12,26.7-26.7,26.7h-173.8c-14.8,0-26.7-12-26.7-26.7v-107"/>
      <path class="st0" d="M277,379.4c0,11.1,9,20.1,20.1,20.1,11.1,0,20.1-9,20.1-20.1h0c0-11.1-9-20.2-20.1-20.2-11.1,0-20.1,9-20.1,20.1h0"/>
    </g>
    <g>
      <path class="st1" d="M238.6,123.8c-23.2,20.1,23.2,33.4,0,53.5"/>
      <path class="st1" d="M298.6,123.8c-23.2,20.1,23.2,33.4,0,53.5"/>
      <path class="st1" d="M358.8,123.8c-23.2,20.1,23.2,33.4,0,53.5"/>
      <path class="st3" d="M412.3,311h40.1"/>
      <path class="st3" d="M144.9,311h40.1"/>
      <path class="st3" d="M278.6,217.4v27.6"/>
      <path class="st3" d="M318.7,245v-27.6"/>
      <path class="st3" d="M265.2,217.4h66.9"/>
      <path class="st3" d="M278.5,364.6c0,11.1,9,20.1,20.1,20.1,11.1,0,20.1-9,20.1-20.1h0c0-11.1-9-20.2-20.1-20.2-11.1,0-20.1,9-20.1,20.1h0"/>
      <path class="st2" d="M223,344.5h13.4"/>
      <path class="st2" d="M223,364.6h13.4"/>
      <path class="st3" d="M412.3,297.7v107c0,14.8-12,26.7-26.7,26.7h-173.8c-14.8,0-26.7-12-26.7-26.7v-107s22.3-53.6,113.7-53.6,113.7,53.6,113.7,53.6h0Z"/>
      <path class="st3" d="M185,297.7h227.3"/>
    </g>
  </g>
</svg>