<?xml version="1.0" encoding="UTF-8"?>
<svg id="Layer_1"   xmlns="http://www.w3.org/2000/svg" version="1.1" viewBox="0 0 600 600">
  <!-- Generator: Adobe Illustrator 29.2.1, SVG Export Plug-In . SVG Version: 2.1.0 Build 116)  -->
  <defs>
    <style>
      .st0 {
        fill: none;
        stroke-linecap: round;
        stroke-width: 12px;
      }

      .st0, .st1 {
        stroke: #fff;
        stroke-miterlimit: 10;
      }

      .st1 {
        fill: #d42e12;
        stroke-width: 4px;
      }
    </style>
  </defs>
  <g id="CIRCLE">
    <circle class="st1" cx="299.4" cy="304.6" r="257.5"/>
  </g>
  <g id="ICONS">
    <path class="st0" d="M420.2,342.1c0,61.9-56.8,108.4-118.7,108.4s-118.7-46.4-118.7-108.4"/>
    <path class="st0" d="M182.8,342.1h0"/>
    <path class="st0" d="M182.8,342.1c0,11.4,53.1,20.6,118.6,20.6,65.5,0,118.7-9.2,118.7-20.6h0"/>
    <path class="st0" d="M297.8,148.8c-31,31,31,41.3,0,72.2"/>
    <path class="st0" d="M251.4,164.2c-31,31,31,41.3,0,72.2"/>
    <path class="st0" d="M349.4,164.2c-31,31,31,41.3,0,72.2"/>
    <path class="st0" d="M400,324.6c0-16.7-13.6-30.3-30.3-30.3h-25.2c-8.2-27.9-37.5-43.9-65.5-35.7-14.6,4.3-26.7,14.8-33,28.6-1.7-.3-3.4-.5-5.1-.5-20.9,0-37.9,17-37.9,37.9h0"/>
  </g>
</svg>