<?xml version="1.0" encoding="UTF-8"?>
<svg id="Layer_1"   xmlns="http://www.w3.org/2000/svg" version="1.1" viewBox="0 0 600 600">
  <!-- Generator: Adobe Illustrator 29.2.1, SVG Export Plug-In . SVG Version: 2.1.0 Build 116)  -->
  <defs>
    <style>
      .st0 {
        fill: none;
        stroke-linecap: round;
        stroke-width: 12px;
      }

      .st0, .st1 {
        stroke: #fff;
        stroke-miterlimit: 10;
      }

      .st1 {
        fill: #d42e12;
        stroke-width: 4px;
      }
    </style>
  </defs>
  <g id="CIRCLE">
    <circle class="st1" cx="302.2" cy="304.6" r="258.1"/>
  </g>
  <g id="ICONS">
    <path class="st0" d="M307.7,229.9c-2.1-.2-4.2-.3-6.3-.3-40.8,0-73.8,33-73.8,73.8"/>
    <path class="st0" d="M227.6,303.4c0,40.8,33,73.8,73.8,73.8s73.8-33,73.8-73.8-16.7-54-41-66.1"/>
    <path class="st0" d="M365.6,267c-16.1,13.6-36.6,21-57.7,20.8-25,.4-48.9-10-65.6-28.5"/>
    <path class="st0" d="M375.1,299.8c-15.8,25.4-43.9,40.6-73.8,39.9-29.9.6-57.9-14.5-73.8-39.9"/>
    <path class="st0" d="M367.7,174.4c-3.6-3.6-9.4-3.5-12.9,0-.5.5-1,1.1-1.3,1.7-14.5,23.9-16.5,58.5,0,75.1,16.5,16.5,51.1,14.6,75,0,4.3-2.6,5.6-8.2,3-12.5-.4-.6-.8-1.2-1.4-1.7l-62.6-62.6h0Z"/>
    <path class="st0" d="M214.4,343.9c13.7-.2,26.5,3.4,34.7,11.6,16.5,16.5,14.6,51.1,0,75-2.6,4.3-8.2,5.7-12.5,3.1-.6-.4-1.2-.8-1.7-1.4l-62.6-62.6c-3.5-3.6-3.5-9.3,0-12.9.5-.5,1.1-.9,1.6-1.3,5.7-3.5,12-6.2,18.6-8.2"/>
  </g>
</svg>