<?xml version="1.0" encoding="UTF-8"?>
<svg id="Layer_1"   xmlns="http://www.w3.org/2000/svg" version="1.1" viewBox="0 0 600 600">
  <!-- Generator: Adobe Illustrator 29.2.1, SVG Export Plug-In . SVG Version: 2.1.0 Build 116)  -->
  <defs>
    <style>
      .st0 {
        fill: none;
        stroke-linecap: round;
        stroke-width: 12px;
      }

      .st0, .st1 {
        stroke: #fff;
        stroke-miterlimit: 10;
      }

      .st1 {
        fill: #d42e12;
        stroke-width: 4px;
      }
    </style>
  </defs>
  <g id="CIRCLE">
    <circle class="st1" cx="300.4" cy="304.3" r="258.4"/>
  </g>
  <g id="ICONS">
    <path class="st0" d="M345.3,324.1c19.6-6.1,36.7-20.3,45.7-40.6,16.7-37.5-.1-81.4-37.6-98.1-37.5-16.7-81.4.1-98.1,37.6-9,20.3-8.2,42.4.4,61.1-19.6,6.1-36.7,20.3-45.7,40.6-16.7,37.5.1,81.4,37.6,98.1,37.5,16.7,81.4-.1,98.1-37.6,9-20.3,8.2-42.4-.4-61.1h0Z"/>
    <path class="st0" d="M229.9,407.3c-3.2-11.9,6.4-19.1,6.9-36.9.5-17,7.1-45.4,21.4-54.6,10.4-6.7,40-15.4,27.5-41.4-6-12.5-5.5-26.5-.8-39.6,4.7-12.9,13.5-24.9,24.3-34"/>
    <path class="st0" d="M284.2,394.6c12.3-11.7,31.9-33.1,30.5-50-1-12.3-11.9-41.2,16.4-46.9,43.1-8.7,58.5-78.7,30.1-107.8"/>
    <line class="st0" x1="309" y1="243.2" x2="285.6" y2="238.9"/>
    <line class="st0" x1="239" y1="355.6" x2="264.4" y2="362"/>
    <line class="st0" x1="314.8" y1="344.6" x2="296.2" y2="338.6"/>
    <line class="st0" x1="342.9" y1="251.7" x2="368.4" y2="255.9"/>
  </g>
</svg>