<svg data-v-5446c4e4="" xmlns="http://www.w3.org/2000/svg" xmlns:xlink="http://www.w3.org/1999/xlink" width="20.445" height="17.486" viewBox="0 0 20.445 17.486" preserveAspectRatio="xMidYMid meet" class="size-8 xl:size-10"><defs><clipPath id="clip-path-chicken"><rect id="Rectangle_2295" data-name="Rectangle 2295" width="20.445" height="17.486" fill="none" stroke="currentColor" stroke-width="0.6"></rect></clipPath></defs><g id="Group_4986" data-name="Group 4986" clip-path="url(#clip-path-chicken)"><path id="Path_1355" data-name="Path 1355" d="M5.518,6.653a5.386,5.386,0,0,1,5.6-1.952c3.634.842,5.525,4.733,3.866,7.75H5a2.3,2.3,0,0,1-1.39-.747C2.085,10.036,3.36,8.369,2.394,7.311c-.566-.621-1.055.375-1.7-.33A.966.966,0,0,1,.7,5.7.77.77,0,0,1,1.732,5.59l.023-.025a.969.969,0,0,1,.105-1.136.772.772,0,0,1,1.164,0c.643.7-.265,1.241.3,1.861.964,1.056,2.486-.338,4.008,1.33A2.808,2.808,0,0,1,8,9.88m8.384,3.341h0a.525.525,0,0,0-.428-.76H2.365a.524.524,0,0,0-.428.76,1.477,1.477,0,0,0,1.328.9H15.054A1.477,1.477,0,0,0,16.382,13.221ZM8.5.455c1.142,1.063-.981,1.871.161,2.934m1.6-2.934c1.142,1.063-.981,1.871.161,2.934m3.553,7.546a3.646,3.646,0,0,0,.088-1.376m-.255-.985a4.628,4.628,0,0,0-3.293-2.756,4.8,4.8,0,0,0-1.08-.125" transform="translate(1.778 1.132)" fill="none" stroke="currentColor" stroke-linecap="round" stroke-miterlimit="10" stroke-width="0.6"></path></g></svg>