<?xml version="1.0" encoding="UTF-8"?>
<svg id="Layer_1"   xmlns="http://www.w3.org/2000/svg" version="1.1" viewBox="0 0 600 600">
  <!-- Generator: Adobe Illustrator 29.2.1, SVG Export Plug-In . SVG Version: 2.1.0 Build 116)  -->
  <defs>
    <style>
      .st0 {
        fill: none;
        stroke-linecap: round;
        stroke-width: 12px;
      }

      .st0, .st1 {
        stroke: #fff;
        stroke-miterlimit: 10;
      }

      .st1 {
        fill: #d42e12;
        stroke-width: 4px;
      }
    </style>
  </defs>
  <g id="CIRCLE">
    <circle class="st1" cx="298" cy="305.1" r="257.6"/>
  </g>
  <g id="ICONS">
    <path class="st0" d="M185.7,386.7c-25.4-22.5-40.5-57.4-41.5-96.2h0c.8-9.2,9.7-15.1,16.3-10.8h0c25.4,22.5,40.5,57.4,41.5,96.2h0c-.8,9.2-9.7,15.1-16.3,10.8h0Z"/>
    <path class="st0" d="M400.5,219.8c-33.4,6.2-70.2-3.4-101.4-26.5h0c-6.8-6.3-6-16.9,1.5-19.5h0c33.4-6.2,70.2,3.4,101.4,26.5h0c6.8,6.3,6,16.9-1.5,19.5h0Z"/>
    <path class="st0" d="M226,448.8c29.9-16.1,52.5-46.6,62.4-84.1h0c1.3-9.1-6-16.9-13.4-14.3h0c-29.9,16.1-52.5,46.6-62.4,84.1h0c-1.3,9.1,5.9,16.9,13.4,14.3h0Z"/>
    <path class="st0" d="M198.6,262.2c29.9-16.1,52.5-46.6,62.4-84.1h0c1.3-9.1-5.9-16.9-13.4-14.3h0c-29.9,16.1-52.5,46.6-62.4,84.1h0c-1.3,9.1,5.9,16.9,13.4,14.3h0Z"/>
    <g>
      <path class="st0" d="M414.7,348.6c-14.1-30.9-13.7-68.9,1-104.8h0c4.5-8.1,14.9-9.9,19.3-3.3h0c14.1,30.9,13.7,68.9-1,104.8h0c-4.5,8.1-14.9,9.9-19.3,3.3h0Z"/>
      <path class="st0" d="M227.9,299.5c21.9-26,56.4-41.8,95.2-43.8h0c9.2.6,15.3,9.3,11.2,16h0c-21.9,26-56.4,41.8-95.2,43.8h0c-9.2-.6-15.3-9.3-11.2-16h0Z"/>
    </g>
    <path class="st0" d="M323.7,428.2c-8.7-32.8-2-70.2,18.6-103.1h0c5.8-7.2,16.4-7.2,19.5,0h0c8.7,32.8,2,70.2-18.6,103.1h0c-5.8,7.2-16.4,7.2-19.5,0h0Z"/>
  </g>
</svg>