<svg data-v-5446c4e4="" version="1.1" viewBox="0 0 61.377 51.903" xmlns="http://www.w3.org/2000/svg" class="size-6 xl:size-8" style="--fill-color: currentColor; --fill-color-fallback: #2D3639;"><defs><clipPath id="clip-path-rice"><rect width="61.377" height="51.903" fill="var(--fill-color, var(--fill-color-fallback))" data-name="Rectangle 6687"></rect></clipPath></defs><g transform="translate(0)" data-name="Group 7478"><g transform="translate(0)" clip-path="url(#clip-path-rice)" fill="var(--fill-color, var(--fill-color-fallback))" data-name="Group 7463"><path transform="translate(0)" d="M60.249,22.927H57.813a6.011,6.011,0,0,0-3.563-5.535,6.168,6.168,0,0,0-4.7-5.163c0-.041.009-.081.009-.122A5.972,5.972,0,0,0,43.68,6.044a5.57,5.57,0,0,0-1.662.242,5.8,5.8,0,0,0-5.426-3.873,5.567,5.567,0,0,0-1.858.321A7.571,7.571,0,0,0,28.918,0,7.793,7.793,0,0,0,21.44,6.335a8.357,8.357,0,0,0-5.772,5.836,6.267,6.267,0,0,0-1.658-.047A6.567,6.567,0,0,0,8.29,18.355a6.554,6.554,0,0,0-4.482,4.572H1.191C.335,22.927,0,23.1,0,24.141,0,32.676,6.137,41.622,15.344,46.6v2.885A2.4,2.4,0,0,0,17.7,51.9h25.97a2.4,2.4,0,0,0,2.359-2.414V46.6c9.207-4.98,15.344-13.928,15.344-22.463a1.077,1.077,0,0,0-1.128-1.214m-53.654-.55a4.075,4.075,0,0,1,5.733-1.15l1.313-2.005a6.416,6.416,0,0,0-2.885-1.078c-.026,0-.051,0-.078,0a4.117,4.117,0,0,1,8.208.565h2.36a6.661,6.661,0,0,0-3.337-5.774,6.075,6.075,0,0,1,1.3-2.473,5.809,5.809,0,0,1,8.332-.472l1.574-1.8A8.185,8.185,0,0,0,24.6,6.1c-.219-.027-.437-.037-.654-.047a5.388,5.388,0,0,1,4.968-3.638,5.27,5.27,0,0,1,4.471,2.472l.6.933.95-.532A3.417,3.417,0,0,1,36.6,4.832a3.689,3.689,0,0,1,3.51,3.326l.3,1.718,1.464-.9A3.411,3.411,0,0,1,43.68,8.45a3.525,3.525,0,0,1,3.046,1.806,3.669,3.669,0,0,1-1.288,4.951L46.625,17.3a5.992,5.992,0,0,0,2.4-2.733,3.717,3.717,0,0,1,2.913,3.449L51.9,19.2l.91.242a3.6,3.6,0,0,1,2.668,3.487H6.321a4.15,4.15,0,0,1,.274-.55M44.556,44.659H36.59v2.414h7.081v2.418H17.707V45.121l-.651-.333A28.291,28.291,0,0,1,3.96,31.382H23.607V28.968H3.089a17.771,17.771,0,0,1-.681-3.621H58.969a17.688,17.688,0,0,1-.682,3.621H48.393v2.414h9.022A28.234,28.234,0,0,1,44.556,44.659" data-name="Path 7548"></path><path transform="translate(5.453 3.186)" d="M19.333,17.332h2.36a3.585,3.585,0,0,1,3.54-3.621,3.506,3.506,0,0,1,.886.114l.588-2.338a5.843,5.843,0,0,0-1.46-.19,5.976,5.976,0,0,0-5.914,6.035" data-name="Path 7549"></path><path transform="translate(0)" d="M60.249,22.927H57.813a6.011,6.011,0,0,0-3.563-5.535,6.168,6.168,0,0,0-4.7-5.163c0-.041.009-.081.009-.122A5.972,5.972,0,0,0,43.68,6.044a5.57,5.57,0,0,0-1.662.242,5.8,5.8,0,0,0-5.426-3.873,5.567,5.567,0,0,0-1.858.321A7.571,7.571,0,0,0,28.918,0,7.793,7.793,0,0,0,21.44,6.335a8.357,8.357,0,0,0-5.772,5.836,6.267,6.267,0,0,0-1.658-.047A6.567,6.567,0,0,0,8.29,18.355a6.554,6.554,0,0,0-4.482,4.572H1.191C.335,22.927,0,23.1,0,24.141,0,32.676,6.137,41.622,15.344,46.6v2.885A2.4,2.4,0,0,0,17.7,51.9h25.97a2.4,2.4,0,0,0,2.359-2.414V46.6c9.207-4.98,15.344-13.928,15.344-22.463a1.077,1.077,0,0,0-1.128-1.214m-53.654-.55a4.075,4.075,0,0,1,5.733-1.15l1.313-2.005a6.416,6.416,0,0,0-2.885-1.078c-.026,0-.051,0-.078,0a4.117,4.117,0,0,1,8.208.565h2.36a6.661,6.661,0,0,0-3.337-5.774,6.075,6.075,0,0,1,1.3-2.473,5.809,5.809,0,0,1,8.332-.472l1.574-1.8A8.185,8.185,0,0,0,24.6,6.1c-.219-.027-.437-.037-.654-.047a5.388,5.388,0,0,1,4.968-3.638,5.27,5.27,0,0,1,4.471,2.472l.6.933.95-.532A3.417,3.417,0,0,1,36.6,4.832a3.689,3.689,0,0,1,3.51,3.326l.3,1.718,1.464-.9A3.411,3.411,0,0,1,43.68,8.45a3.525,3.525,0,0,1,3.046,1.806,3.669,3.669,0,0,1-1.288,4.951L46.625,17.3a5.992,5.992,0,0,0,2.4-2.733,3.717,3.717,0,0,1,2.913,3.449L51.9,19.2l.91.242a3.6,3.6,0,0,1,2.668,3.487H6.321a4.15,4.15,0,0,1,.274-.55M44.556,44.659H36.59v2.414h7.081v2.418H17.707V45.121l-.651-.333A28.291,28.291,0,0,1,3.96,31.382H23.607V28.968H3.089a17.771,17.771,0,0,1-.681-3.621H58.969a17.688,17.688,0,0,1-.682,3.621H48.393v2.414h9.022A28.234,28.234,0,0,1,44.556,44.659" data-name="Path 7550"></path><path transform="translate(5.453 3.186)" d="M19.333,17.332h2.36a3.585,3.585,0,0,1,3.54-3.621,3.506,3.506,0,0,1,.886.114l.588-2.338a5.843,5.843,0,0,0-1.46-.19,5.976,5.976,0,0,0-5.914,6.035" data-name="Path 7551"></path></g></g></svg>