<?xml version="1.0" encoding="UTF-8"?>
<svg id="Layer_1"   xmlns="http://www.w3.org/2000/svg" version="1.1" viewBox="0 0 600 600">
  <!-- Generator: Adobe Illustrator 29.2.1, SVG Export Plug-In . SVG Version: 2.1.0 Build 116)  -->
  <defs>
    <style>
      .st0 {
        fill: none;
        stroke-linecap: round;
        stroke-width: 12px;
      }

      .st0, .st1 {
        stroke: #fff;
        stroke-miterlimit: 10;
      }

      .st1 {
        fill: #d42e12;
        stroke-width: 4px;
      }
    </style>
  </defs>
  <g id="CIRCLE">
    <circle class="st1" cx="299.5" cy="304.5" r="258.2"/>
  </g>
  <g id="ICONS">
    <path class="st0" d="M264.8,211.1c-21.6,1.2-43.2,4.8-64.8,10.9l-3.6-3.6c-9.6-9.6-22.8-10.9-30-4.8-7.2,7.2-4.8,20.5,4.8,30.1l2.4,2.4c-10.8,48.2-10.8,84.3,0,132.6l-2.4,2.4c-9.6,9.6-10.8,22.9-4.8,30.1,7.2,7.2,20.4,4.8,30-4.8l3.6-3.6c64.3,15.7,131.3,15.7,195.6,0l3.6,3.6c9.6,9.6,22.8,10.9,30,4.8,7.2-7.2,4.8-20.5-4.8-30.1l-2.4-2.4c10.8-48.2,10.8-84.4,0-132.6l2.4-2.4c9.6-9.6,10.8-22.9,4.8-30.1-7.2-7.2-20.4-4.8-30,4.8"/>
    <path class="st0" d="M312.4,153.3h40.3l-42.8,60.5h45.4"/>
    <path class="st0" d="M263.5,250.6h29.6l-31.4,44.4h33.3"/>
  </g>
</svg>