<svg width="109" height="56" viewBox="0 0 109.468 56" fill="none" xmlns="http://www.w3.org/2000/svg">
<g id="sunrice_logo_134bacc5ff.svg" clip-path="url(#clip0_0_4)">
<path id="Vector" fill-rule="evenodd" clip-rule="evenodd" d="M85.3476 39.9922H90.7652V44.7564H85.3476V39.9922ZM56.9256 34.2479L57.0073 33.8396H59.1308L59.5936 33.894L60.0564 34.0846L60.4648 34.3568L60.7914 34.7107L61.0365 35.1191L61.1998 35.5819L61.2543 36.0719L61.1998 36.6709L61.0092 37.2154L60.7098 37.7054L60.3559 38.141L59.9203 38.4677L59.4302 38.7399L58.913 38.9033L58.3957 38.9577H55.8911L56.9256 34.2479ZM57.8512 34.8741H59.0491L59.3213 34.9013L59.5664 35.0102L59.7842 35.1736L59.9747 35.3641L60.1108 35.6091L60.1925 35.8542L60.2197 36.0992L60.1925 36.4803L60.0836 36.8342L59.893 37.1609L59.648 37.4332L59.3758 37.6509L59.0491 37.8143L58.7224 37.9232L58.3685 37.9504H57.1979L57.8512 34.8741Z" fill="#231F20"/>
<path id="Vector_2" fill-rule="evenodd" clip-rule="evenodd" d="M51.753 31.335H61.3904L62.1527 31.3622L62.8605 31.4711L63.5139 31.6616L64.0856 31.9067L64.6028 32.2061L65.0384 32.56L65.3923 32.9684L65.6918 33.3768L65.9368 33.8123L66.1274 34.2479L66.2363 34.6835L66.3179 35.1191L66.3452 35.5547L66.2907 36.2897L66.1546 36.9703L65.9368 37.5693L65.6373 38.1138L65.2834 38.6038L64.8751 39.0394L64.4395 39.4205L64.0039 39.7472L63.5683 40.0194L63.1327 40.2645L65.7735 47.016H58.5318L56.9256 41.4895H56.5173L55.4011 47.016H48.5678L51.753 31.335ZM52.597 32.3695H61.3632L62.0438 32.3967L62.6427 32.5056L63.1599 32.6689L63.6228 32.8595L64.0039 33.1045L64.3306 33.3768L64.6028 33.6762L64.8206 33.9757L65.0112 34.3024L65.1473 34.6291L65.229 34.9558L65.2834 35.2825L65.3106 35.5819L65.2834 36.1808L65.1745 36.6981L65.0112 37.1609L64.7934 37.5693L64.5211 37.9504L64.1945 38.2771L63.8405 38.5766L63.4594 38.8488L63.0783 39.0938L62.6971 39.3116L61.8804 39.72L64.3034 45.9543H59.3758L57.7696 40.4278H55.7278L54.6116 45.9543H49.9018L52.597 32.3695ZM69.3398 31.335H76.0914L72.9062 46.9888H66.1546L69.3398 31.335ZM70.1838 32.3695H74.8119L72.0622 45.9543H67.4341L70.1838 32.3695ZM75.438 39.6655L75.6014 38.7127L75.8464 37.8415L76.1731 36.9976L76.5542 36.2353L77.017 35.5275L77.5071 34.8741L78.0515 34.2752L78.6505 33.7307L79.2766 33.2406L79.93 32.8051L80.6106 32.4239L81.2912 32.07L81.9718 31.7705L82.6796 31.5255L83.3875 31.335L84.0681 31.1716L84.7487 31.0627L85.402 31.0083L86.0282 30.981L86.8721 31.0083L87.6616 31.0899L88.3967 31.2261L89.0773 31.3894L89.7035 31.6072L90.2752 31.8522L91.3369 32.3695L89.2134 35.7997L88.4239 35.4458L88.0428 35.3097L87.6344 35.2008L87.1716 35.1191L86.6543 35.0919L86.1099 35.1463L85.5926 35.2825L85.0754 35.5002L84.5853 35.7997L84.1225 36.1536L83.7141 36.562L83.3602 37.052L83.0335 37.5693L82.7885 38.141L82.598 38.7399L82.4891 39.3661L82.4618 39.9922L82.4891 40.5912L82.5707 41.1084L82.6796 41.544L82.8158 41.8979L82.9791 42.1974L83.1697 42.4424L83.3602 42.633L83.5508 42.7691L83.7686 42.878L83.9864 42.9597L84.2042 43.0141L84.3948 43.0413L84.5853 43.0685H84.7487L85.3204 43.0141L85.9193 42.9052L86.491 42.7419L87.0355 42.5513L87.9611 42.1974L89.2406 45.2465L89.4584 45.7365L87.825 46.3354L86.6543 46.7166L85.4837 47.016L84.3131 47.2611L83.1697 47.4244L82.0535 47.4789L81.1823 47.4244L80.3656 47.3155L79.6033 47.1249L78.9227 46.8527L78.2966 46.526L77.7248 46.1449L77.2348 45.6821L76.7992 45.192L76.4181 44.6475L76.1186 44.0758L75.8736 43.4497L75.683 42.7963L75.5469 42.1429L75.4925 41.4623V40.7817L75.438 39.6655ZM76.4725 39.8017L76.6087 38.9577L76.8265 38.1682L77.1259 37.4332L77.4798 36.7526L77.8882 36.1264L78.3238 35.5275L78.8138 34.983L79.3311 34.493L79.9028 34.0574L80.5017 33.649L81.1006 33.2951L81.7268 32.9956L82.3529 32.7234L82.9791 32.5056L83.6053 32.315L84.2314 32.1789L84.8303 32.07L85.402 32.0156L85.9737 31.9883L86.7633 32.0156L87.4711 32.0972L88.1245 32.2061L88.7234 32.3422L89.2679 32.5328L89.7851 32.7506L88.7506 34.4385L88.315 34.2752L87.825 34.139L87.2533 34.0301L86.6271 34.0029L85.9193 34.0574L85.2387 34.2207L84.5853 34.493L83.9864 34.8469L83.4419 35.2825L82.9246 35.7997L82.4891 36.3714L82.1079 36.9976L81.8085 37.6782L81.5907 38.386L81.4545 39.121L81.4001 39.8833L81.4273 40.5912L81.509 41.2173L81.6451 41.7618L81.8357 42.2518L82.0807 42.6602L82.3529 43.0141L82.6524 43.3136L82.9519 43.5314L83.2786 43.6947L83.6053 43.8308L83.9047 43.9125L84.2042 43.9669L84.4764 43.9942H84.7214L85.402 43.9397L86.0826 43.8036L86.736 43.6403L87.335 43.4497L88.0156 45.0559L87.4166 45.2737L86.3004 45.6276L85.1842 45.9271L84.0681 46.1449L83.0063 46.281L81.9718 46.3354L81.2095 46.3082L80.5017 46.1993L79.8483 46.036L79.2766 45.8182L78.7594 45.5459L78.2966 45.2193L77.8882 44.8653L77.5343 44.457L77.2348 43.9942L76.9898 43.5041L76.772 42.9869L76.6087 42.4424L76.4998 41.8707L76.4453 41.2718V40.6728L76.4725 39.8017ZM96.1011 37.0248L96.2917 36.4259L96.5367 35.8542L96.8362 35.3369L97.1629 34.8469L97.5712 34.4113L98.034 34.0574L98.5513 33.7851L99.123 33.5946L99.6947 33.5129H99.7491L100.348 33.5673L100.865 33.7579L101.301 34.0574L101.628 34.4657L101.818 34.9558L101.845 35.5002L101.737 36.0719L101.519 36.5892L101.192 37.052L100.756 37.4332L100.239 37.7326L99.6403 37.9776L98.9596 38.141L98.1974 38.2499L97.3534 38.3043H95.7744L96.1011 37.0248ZM97.2718 36.807L97.4895 36.317L97.7346 35.8814L98.0068 35.5002L98.3063 35.1736L98.633 34.9285L98.9869 34.738L99.368 34.6018L99.8036 34.5474L100.158 34.5746L100.43 34.6835L100.62 34.8196L100.756 34.983L100.838 35.1736L100.865 35.4458L100.811 35.7725L100.675 36.0719L100.484 36.3442L100.212 36.5892L99.858 36.807L99.3952 36.9976L98.8235 37.1337L98.1429 37.2426L97.3807 37.297H97.1629L97.2718 36.807Z" fill="#231F20"/>
<path id="Vector_3" fill-rule="evenodd" clip-rule="evenodd" d="M89.6762 39.965L89.8396 38.9849L90.0846 38.0593L90.3841 37.1881L90.7652 36.3714L91.2008 35.6364L91.6908 34.9558L92.2353 34.3296L92.807 33.7579L93.4059 33.2406L94.0593 32.7778L94.7399 32.3695L95.4205 32.0156L96.1011 31.7161L96.8089 31.4711L97.5168 31.2805L98.2246 31.1172L98.9052 31.0083L99.5858 30.9538L100.239 30.9266L100.974 30.9538L101.682 31.0083L102.363 31.1172L103.016 31.2805L103.642 31.4711L104.214 31.7161L104.758 32.0428L105.221 32.4239L105.63 32.8595L105.956 33.3768L106.201 33.9485L106.337 34.5746L106.392 35.2825L106.337 35.9086L106.174 36.5075L105.902 37.0792L105.521 37.5965L105.085 38.0593L104.568 38.4949L103.996 38.876L103.37 39.2299L102.689 39.5294L101.954 39.8017L101.192 40.0194L100.403 40.21L99.5858 40.3734L98.7419 40.4823L97.8979 40.5639L97.054 40.5912H96.7273V40.8634L96.7545 41.1084L96.7817 41.3534L96.8634 41.5712L96.9451 41.789L97.054 42.0068L97.2173 42.1974L97.4079 42.3607L97.6529 42.4968L97.9796 42.6057L98.3879 42.6874L98.878 42.7146L99.5314 42.6602L100.158 42.5513L100.756 42.3607L101.383 42.1157L102.036 41.8435L102.717 41.5168L103.152 41.299L104.813 44.5386L103.452 45.2193L102.499 45.6548L101.464 46.0632L100.375 46.4171L99.2591 46.7166L98.0885 46.9616L96.8906 47.1249L95.6655 47.1794L94.876 47.1249L94.141 47.016L93.4876 46.8255L92.8887 46.5805L92.3442 46.2538L91.8542 45.8999L91.4186 45.4915L91.0374 45.0559L90.7107 44.5931L90.4385 44.1303L90.1935 43.6403L90.0029 43.1502L89.8396 42.6602L89.7307 42.1974L89.649 41.7346L89.6218 41.299V40.8906L89.6762 39.965ZM90.7107 40.0739L90.8469 39.1755L91.0647 38.3316L91.3369 37.5693L91.6636 36.8614L92.0447 36.2081L92.4803 35.6091L92.9703 35.0374L93.4876 34.5474L94.0321 34.0846L94.6038 33.6762L95.2027 33.3223L95.8289 32.9956L96.455 32.7234L97.0812 32.5056L97.7073 32.315L98.3335 32.1789L98.9596 32.07L99.5586 32.0156L100.158 31.9883L100.838 32.0156L101.491 32.07L102.118 32.1517L102.689 32.2878L103.207 32.4511L103.669 32.6689L104.078 32.914L104.432 33.2134L104.731 33.5401L104.976 33.9212L105.14 34.3296L105.248 34.8196L105.276 35.3641L105.221 35.8269L105.112 36.2625L104.922 36.6709L104.649 37.052L104.296 37.4332L103.86 37.7871L103.37 38.1138L102.798 38.4132L102.172 38.6855L101.546 38.9305L100.838 39.1483L100.103 39.3388L99.368 39.475L98.5785 39.5839L97.789 39.6655L96.9995 39.72H95.72L95.6655 40.3461L95.6383 40.5639V41.1084L95.6655 41.4079L95.72 41.7346L95.8289 42.0885L95.965 42.4424L96.1828 42.7691L96.455 43.0958L96.7817 43.368L97.1901 43.613L97.6801 43.7764L98.2246 43.8853L98.8508 43.9125L99.6403 43.858L100.375 43.7219L101.083 43.5041L101.764 43.2319L102.444 42.9324L102.689 42.8235L103.424 44.2664L103.016 44.457L102.09 44.8653L101.11 45.2465L100.076 45.6004L99.0141 45.8999L97.9251 46.1176L96.8089 46.2538L95.6928 46.3082L95.0122 46.281L94.4132 46.1721L93.8687 46.0088L93.3787 45.791L92.9431 45.5459L92.5348 45.2465L92.1808 44.9198L91.8542 44.5659L91.5819 44.1847L91.3369 43.7764L91.1463 43.368L90.983 42.9597L90.8469 42.5513L90.7652 42.1429L90.7107 41.7618L90.6835 41.4079V41.0812L90.7107 40.0739Z" fill="#231F20"/>
<g id="Clip path group">
<mask id="mask0_0_4" style="mask-type:luminance" maskUnits="userSpaceOnUse" x="0" y="0" width="110" height="56">
<g id="SVGID_2_">
<path id="Vector_4" d="M0 0H109.468V56H0V0Z" fill="white"/>
</g>
</mask>
<g mask="url(#mask0_0_4)">
<path id="Vector_5" fill-rule="evenodd" clip-rule="evenodd" d="M102.472 17.1784C106.392 32.1517 86.8994 48.9217 57.9601 54.0671C28.9937 59.2124 3.32134 51.0452 0.626155 35.7997C-2.09626 20.5814 19.193 7.07827 48.1595 1.93291C77.0987 -3.21245 99.3136 5.17258 102.472 17.1784Z" fill="white"/>
</g>
</g>
<g id="Clip path group_2">
<mask id="mask1_0_4" style="mask-type:luminance" maskUnits="userSpaceOnUse" x="0" y="0" width="110" height="56">
<g id="SVGID_2__2">
<path id="Vector_6" d="M0 0H109.468V56H0V0Z" fill="white"/>
</g>
</mask>
<g mask="url(#mask1_0_4)">
<path id="Vector_7" fill-rule="evenodd" clip-rule="evenodd" d="M0 33.3495V32.7234L0.0272241 32.1245V32.0972L0.108896 31.4983L0.190569 30.8994V30.8721L0.299465 30.2732L0.408362 29.6743L0.435586 29.6471L0.571706 29.0481L0.762275 28.4492L0.952844 27.8503L1.19786 27.2513L1.44288 26.6524L1.71512 26.0807V26.0535L2.01458 25.4818L2.31405 24.9101H2.34127L2.66796 24.3384L3.02188 23.7667H3.0491L3.43024 23.1949L3.81138 22.6232H3.8386L4.24696 22.0788V22.0515L4.70977 21.5071L5.17258 20.9626L5.66261 20.4181L6.15265 19.8736H6.17987L6.69713 19.3563V19.3291L7.24161 18.8119L7.81332 18.2946L8.38503 17.7773L9.01118 17.2601L9.61011 16.7428L10.2635 16.2528L10.9169 15.7628V15.7355L11.5975 15.2455L12.2781 14.7827L12.3053 14.7555L13.0131 14.2927L13.721 13.8026L14.4832 13.3398L15.2455 12.877L16.0078 12.4142L16.7973 11.9786H16.8245L17.614 11.5158L18.4579 11.0802L19.2747 10.6446H19.3019L20.1458 10.2363L21.017 9.80068L21.8882 9.39232H21.9154L22.7866 8.98396H22.8138L23.7122 8.60282L24.6378 8.19446L25.5907 7.81332L26.5435 7.43218L27.4964 7.07827L28.4764 6.69713L29.4837 6.34322L30.491 6.01653L31.4983 5.66262L32.5328 5.33593L33.5673 5.00924L34.6291 4.68255L35.6908 4.38308L36.7798 4.08362L37.8415 3.78415H37.8687L38.9577 3.51191L40.0467 3.23967H40.0739L41.1901 2.96743L42.3063 2.69519L43.4497 2.45017L44.5931 2.23238V2.20515L45.7365 1.98736L46.9071 1.76957L48.0778 1.55177L49.3845 1.33398H49.4118L50.6913 1.11619H50.7185L51.9981 0.92562L53.2776 0.762275H53.3048L54.5571 0.598931L55.8367 0.46281L57.089 0.353913L58.3413 0.245017L59.5664 0.163345L60.7914 0.108896L61.9893 0.0544482L63.1872 0.0272241L64.385 0H66.7263L67.8425 0.0544482H67.8697L68.9859 0.0816723L70.1021 0.163345L71.2183 0.217793L72.3072 0.326689L73.369 0.408362H73.3962L74.4579 0.544482L75.4925 0.680603L76.527 0.816723L77.5343 0.980068H77.5615L78.5416 1.17064L79.5216 1.33398L79.5489 1.36121L80.5017 1.55177L81.4545 1.76957L82.3802 1.98736H82.4074L83.3058 2.23238H83.333L84.2042 2.47739H84.2314L85.1026 2.74964L85.9737 3.02188L86.8177 3.32134L87.6616 3.62081L88.4511 3.92027H88.4784L89.2679 4.24696L90.0301 4.57365L90.7924 4.92756L91.5275 5.28148L92.2353 5.63539H92.2625L92.9431 6.01653L93.6237 6.39767L94.2771 6.80603L94.9033 7.21439H94.9305L95.5294 7.62275L96.1283 8.03111V8.05834L96.7 8.4667V8.49392L97.2445 8.92951L97.7618 9.3651H97.789L98.279 9.8279L98.7691 10.2907V10.3179L99.2319 10.7807L99.6675 11.2708L100.076 11.7608L100.457 12.2509L100.811 12.7681H100.838L101.165 13.2854L101.491 13.8026L101.764 14.3199L101.791 14.3471L102.036 14.8644L102.281 15.4088L102.499 15.9533V15.9806L102.689 16.4978V16.525L102.853 17.0695L102.989 17.6957L103.016 17.7229L103.125 18.3491L103.234 18.9752L103.288 19.6014V19.6286L103.343 20.2547L103.37 20.8809V20.9081L103.343 21.5343L103.316 22.1604V22.1877L103.261 22.8138L103.179 23.44V23.4672L103.07 24.0933L102.962 24.7195L102.934 24.7467L102.798 25.3729L102.608 25.999L102.417 26.6252V26.6524L102.199 27.2786H102.172L101.927 27.9047L101.655 28.5309L101.383 29.157H101.355L101.056 29.7832L100.729 30.4093H100.702L100.348 31.0355L99.9669 31.6344V31.6616L99.5586 32.2606L99.1502 32.8595V32.8867L98.6874 33.4857L98.2246 34.0846L97.7346 34.6835L97.2445 35.2825H97.2173L96.7 35.8814L96.1556 36.4531L95.5839 37.052L94.9849 37.6237L94.386 38.1954L93.7598 38.7671L93.1337 39.3116L93.1065 39.3388L92.4531 39.8833L91.7725 40.4278L91.0919 40.9723H91.0647L90.3568 41.5168L89.6218 42.034L88.8867 42.5785H88.8595L88.0972 43.0958L87.3077 43.5858L86.5182 44.1031H86.491L85.6743 44.5931L84.8576 45.0831L83.9864 45.5732L83.1424 46.036H83.1152L82.244 46.4988L81.3456 46.9616L80.42 47.3972V47.4244L79.4944 47.86L78.5416 48.2684L77.5887 48.7039L76.6086 49.1123L75.6286 49.5207L74.6213 49.9018L73.614 50.2829H73.5868L72.5795 50.6641L71.5177 51.018L70.4832 51.3719H70.456L69.3943 51.6986L68.3053 52.0253L67.2163 52.352L66.1001 52.6514L64.984 52.9509L63.8678 53.2231H63.8405L62.7244 53.4954H62.6971L61.5537 53.7676L60.3831 54.0126L59.2124 54.2304L58.0146 54.4482L56.8439 54.666L55.6733 54.8294V54.8566L54.5027 55.0199L53.332 55.1833L52.1886 55.3194L51.018 55.4555L49.8746 55.5644L48.7312 55.6733L47.5877 55.755L46.4716 55.8367L45.3554 55.8911H45.3281L44.212 55.9456L43.123 55.9728H43.0958L42.0068 56H39.8289L38.7399 55.9728L37.6782 55.9456L36.6164 55.8911L35.5547 55.8367L34.5202 55.755L33.4857 55.6733L32.4511 55.5916L31.4438 55.4827L30.4366 55.3466L29.4565 55.2105L28.4764 55.0744H28.4492L27.4964 54.911L26.5435 54.7477L25.5907 54.5571L24.665 54.3666L23.7394 54.1488L22.8138 53.931L21.9426 53.7132H21.9154L21.0442 53.4682L20.1731 53.2231L19.3291 52.9509L18.4852 52.6787L17.6684 52.3792L16.8517 52.107V52.0797L16.0622 51.7803H16.035L15.2727 51.4536L14.5105 51.1269L13.7482 50.8002V50.773L13.0403 50.4463H13.0131L12.3053 50.0651L11.6247 49.7112H11.5975L10.9441 49.3301L10.9169 49.3029L10.2635 48.9217L9.61011 48.5134L8.98396 48.105L8.38503 47.6694L7.7861 47.2338L7.21439 46.7983L6.66991 46.3354L6.12543 45.8726L5.60817 45.4098V45.3826L5.11813 44.9198V44.8926L4.65532 44.4298V44.4025L4.19251 43.9125L3.78415 43.3952H3.75693L3.34857 42.878L2.96743 42.3335L2.61351 41.789H2.58629L2.2596 41.2445L1.93291 40.6728L1.63345 40.1283V40.1011L1.36121 39.5294L1.11619 38.9577V38.9305L0.898396 38.3588V38.3316L0.680603 37.7598V37.7326L0.517258 37.1337L0.353913 36.5075L0.245017 35.8814L0.136121 35.2552V35.228L0.0544482 34.6291V34.6018L0.0272241 34.0029V33.9757L0 33.3768L0 33.3495Z" fill="#E2231A"/>
</g>
</g>
<g id="Clip path group_3">
<mask id="mask2_0_4" style="mask-type:luminance" maskUnits="userSpaceOnUse" x="0" y="0" width="110" height="56">
<g id="SVGID_2__3">
<path id="Vector_8" d="M0 0H109.468V56H0V0Z" fill="white"/>
</g>
</mask>
<g mask="url(#mask2_0_4)">
<path id="Vector_9" fill-rule="evenodd" clip-rule="evenodd" d="M54.4754 31.4711C54.4754 43.2047 44.9742 52.7059 33.2406 52.7059C21.507 52.7059 12.0058 43.2047 12.0058 31.4711C12.0058 19.7375 21.507 10.2363 33.2406 10.2363C44.9742 10.2363 54.4754 19.7647 54.4754 31.4711Z" fill="#EF5224"/>
</g>
</g>
<g id="Clip path group_4">
<mask id="mask3_0_4" style="mask-type:luminance" maskUnits="userSpaceOnUse" x="0" y="0" width="110" height="56">
<g id="SVGID_2__4">
<path id="Vector_10" d="M0 0H109.468V56H0V0Z" fill="white"/>
</g>
</mask>
<g mask="url(#mask3_0_4)">
<path id="Vector_11" fill-rule="evenodd" clip-rule="evenodd" d="M33.2134 52.6514C21.507 52.6514 12.0058 43.1502 12.0058 31.4439C12.0058 19.7375 21.507 10.2363 33.2134 10.2363C44.9198 10.2363 54.421 19.7375 54.421 31.4439C54.421 43.1502 44.9198 52.6514 33.2134 52.6514Z" fill="#EF5224"/>
</g>
</g>
<g id="Clip path group_5">
<mask id="mask4_0_4" style="mask-type:luminance" maskUnits="userSpaceOnUse" x="0" y="0" width="110" height="56">
<g id="SVGID_2__5">
<path id="Vector_12" d="M0 0H109.468V56H0V0Z" fill="white"/>
</g>
</mask>
<g mask="url(#mask4_0_4)">
<path id="Vector_13" fill-rule="evenodd" clip-rule="evenodd" d="M33.2134 52.5698C21.5343 52.5698 12.0603 43.0958 12.0603 31.3894C12.0603 19.7103 21.5343 10.209 33.2134 10.209C44.8926 10.209 54.3938 19.683 54.3938 31.3894C54.3666 43.0958 44.8926 52.5698 33.2134 52.5698Z" fill="#EF5224"/>
</g>
</g>
<g id="Clip path group_6">
<mask id="mask5_0_4" style="mask-type:luminance" maskUnits="userSpaceOnUse" x="0" y="0" width="110" height="56">
<g id="SVGID_2__6">
<path id="Vector_14" d="M0 0H109.468V56H0V0Z" fill="white"/>
</g>
</mask>
<g mask="url(#mask5_0_4)">
<path id="Vector_15" fill-rule="evenodd" clip-rule="evenodd" d="M33.1862 52.5153C21.507 52.5153 12.0603 43.0686 12.0603 31.3894C12.0603 19.7103 21.507 10.2635 33.1862 10.2635C44.8653 10.2635 54.3121 19.7375 54.3121 31.3894C54.3121 43.0413 44.8653 52.5153 33.1862 52.5153Z" fill="#F17C24"/>
</g>
</g>
<g id="Clip path group_7">
<mask id="mask6_0_4" style="mask-type:luminance" maskUnits="userSpaceOnUse" x="0" y="0" width="110" height="56">
<g id="SVGID_2__7">
<path id="Vector_16" d="M0 0H109.468V56H0V0Z" fill="white"/>
</g>
</mask>
<g mask="url(#mask6_0_4)">
<path id="Vector_17" fill-rule="evenodd" clip-rule="evenodd" d="M33.159 52.4336C21.507 52.4336 12.0603 42.9869 12.0603 31.335C12.0603 19.683 21.507 10.2363 33.159 10.2363C44.8109 10.2363 54.2577 19.683 54.2577 31.335C54.2577 42.9869 44.8109 52.4336 33.159 52.4336Z" fill="#F17C24"/>
</g>
</g>
<g id="Clip path group_8">
<mask id="mask7_0_4" style="mask-type:luminance" maskUnits="userSpaceOnUse" x="0" y="0" width="110" height="56">
<g id="SVGID_2__8">
<path id="Vector_18" d="M0 0H109.468V56H0V0Z" fill="white"/>
</g>
</mask>
<g mask="url(#mask7_0_4)">
<path id="Vector_19" fill-rule="evenodd" clip-rule="evenodd" d="M33.159 52.352C21.5343 52.352 12.1147 42.9324 12.1147 31.3077C12.1147 19.683 21.5343 10.2635 33.159 10.2635C44.7837 10.2635 54.2032 19.683 54.2032 31.3077C54.2032 42.9324 44.7837 52.352 33.159 52.352Z" fill="#F17C24"/>
</g>
</g>
<g id="Clip path group_9">
<mask id="mask8_0_4" style="mask-type:luminance" maskUnits="userSpaceOnUse" x="0" y="0" width="110" height="56">
<g id="SVGID_2__9">
<path id="Vector_20" d="M0 0H109.468V56H0V0Z" fill="white"/>
</g>
</mask>
<g mask="url(#mask8_0_4)">
<path id="Vector_21" fill-rule="evenodd" clip-rule="evenodd" d="M33.1317 52.2975C21.5343 52.2975 12.1147 42.878 12.1147 31.2805C12.1147 19.683 21.5343 10.2635 33.1317 10.2635C44.7292 10.2635 54.1488 19.683 54.1488 31.2805C54.1488 42.878 44.7564 52.2975 33.1317 52.2975Z" fill="#F17C24"/>
</g>
</g>
<g id="Clip path group_10">
<mask id="mask9_0_4" style="mask-type:luminance" maskUnits="userSpaceOnUse" x="0" y="0" width="110" height="56">
<g id="SVGID_2__10">
<path id="Vector_22" d="M0 0H109.468V56H0V0Z" fill="white"/>
</g>
</mask>
<g mask="url(#mask9_0_4)">
<path id="Vector_23" fill-rule="evenodd" clip-rule="evenodd" d="M33.1317 52.2158C21.5343 52.2158 12.1692 42.8235 12.1692 31.2261C12.1692 19.6286 21.5615 10.2635 33.1317 10.2635C44.702 10.2635 54.1215 19.6558 54.1215 31.2261C54.0943 42.8235 44.702 52.2158 33.1317 52.2158Z" fill="#F17C24"/>
</g>
</g>
<g id="Clip path group_11">
<mask id="mask10_0_4" style="mask-type:luminance" maskUnits="userSpaceOnUse" x="0" y="0" width="110" height="56">
<g id="SVGID_2__11">
<path id="Vector_24" d="M0 0H109.468V56H0V0Z" fill="white"/>
</g>
</mask>
<g mask="url(#mask10_0_4)">
<path id="Vector_25" fill-rule="evenodd" clip-rule="evenodd" d="M33.1045 52.1342C21.5343 52.1342 12.1692 42.7691 12.1692 31.1988C12.1692 19.6286 21.5343 10.2635 33.1045 10.2635C44.6748 10.2635 54.0399 19.6286 54.0399 31.1988C54.0671 42.7691 44.6748 52.1342 33.1045 52.1342Z" fill="#F17C24"/>
</g>
</g>
<g id="Clip path group_12">
<mask id="mask11_0_4" style="mask-type:luminance" maskUnits="userSpaceOnUse" x="0" y="0" width="110" height="56">
<g id="SVGID_2__12">
<path id="Vector_26" d="M0 0H109.468V56H0V0Z" fill="white"/>
</g>
</mask>
<g mask="url(#mask11_0_4)">
<path id="Vector_27" fill-rule="evenodd" clip-rule="evenodd" d="M33.1045 52.0525C21.5615 52.0525 12.1964 42.6874 12.1964 31.1444C12.1964 19.6014 21.5615 10.2363 33.1045 10.2363C44.6475 10.2363 54.0126 19.6014 54.0126 31.1444C54.0126 42.7146 44.6475 52.0525 33.1045 52.0525Z" fill="#F17C24"/>
</g>
</g>
<g id="Clip path group_13">
<mask id="mask12_0_4" style="mask-type:luminance" maskUnits="userSpaceOnUse" x="0" y="0" width="110" height="56">
<g id="SVGID_2__13">
<path id="Vector_28" d="M0 0H109.468V56H0V0Z" fill="white"/>
</g>
</mask>
<g mask="url(#mask12_0_4)">
<path id="Vector_29" fill-rule="evenodd" clip-rule="evenodd" d="M33.0773 51.9981C21.5615 51.9981 12.2236 42.6602 12.2236 31.1444C12.2236 19.6286 21.5615 10.2907 33.0773 10.2907C44.5931 10.2907 53.931 19.6286 53.931 31.1444C53.9582 42.6602 44.6203 51.9981 33.0773 51.9981Z" fill="#F6BE25"/>
</g>
</g>
<g id="Clip path group_14">
<mask id="mask13_0_4" style="mask-type:luminance" maskUnits="userSpaceOnUse" x="0" y="0" width="110" height="56">
<g id="SVGID_2__14">
<path id="Vector_30" d="M0 0H109.468V56H0V0Z" fill="white"/>
</g>
</mask>
<g mask="url(#mask13_0_4)">
<path id="Vector_31" fill-rule="evenodd" clip-rule="evenodd" d="M33.0773 51.9164C21.5887 51.9164 12.2509 42.6057 12.2509 31.0899C12.2509 19.6014 21.5615 10.2635 33.0773 10.2635C44.5659 10.2635 53.9037 19.5741 53.9037 31.0899C53.9037 42.5785 44.5659 51.9164 33.0773 51.9164Z" fill="#F6BE25"/>
</g>
</g>
<g id="Clip path group_15">
<mask id="mask14_0_4" style="mask-type:luminance" maskUnits="userSpaceOnUse" x="0" y="0" width="110" height="56">
<g id="SVGID_2__15">
<path id="Vector_32" d="M0 0H109.468V56H0V0Z" fill="white"/>
</g>
</mask>
<g mask="url(#mask14_0_4)">
<path id="Vector_33" fill-rule="evenodd" clip-rule="evenodd" d="M33.0501 51.8347C21.5615 51.8347 12.2781 42.5241 12.2781 31.0355C12.2781 19.5469 21.5887 10.2635 33.0501 10.2635C44.5387 10.2635 53.8493 19.5741 53.8493 31.0355C53.8493 42.5241 44.5387 51.8347 33.0501 51.8347Z" fill="#F6BE25"/>
</g>
</g>
<g id="Clip path group_16">
<mask id="mask15_0_4" style="mask-type:luminance" maskUnits="userSpaceOnUse" x="0" y="0" width="110" height="56">
<g id="SVGID_2__16">
<path id="Vector_34" d="M0 0H109.468V56H0V0Z" fill="white"/>
</g>
</mask>
<g mask="url(#mask15_0_4)">
<path id="Vector_35" fill-rule="evenodd" clip-rule="evenodd" d="M33.0501 51.753C21.5887 51.753 12.3053 42.4696 12.3053 31.0083C12.3053 19.5469 21.5887 10.2635 33.0501 10.2635C44.5114 10.2635 53.7949 19.5469 53.7949 31.0083C53.7949 42.4696 44.5114 51.753 33.0501 51.753Z" fill="#F6BE25"/>
</g>
</g>
<g id="Clip path group_17">
<mask id="mask16_0_4" style="mask-type:luminance" maskUnits="userSpaceOnUse" x="0" y="0" width="110" height="56">
<g id="SVGID_2__17">
<path id="Vector_36" d="M0 0H109.468V56H0V0Z" fill="white"/>
</g>
</mask>
<g mask="url(#mask16_0_4)">
<path id="Vector_37" fill-rule="evenodd" clip-rule="evenodd" d="M33.0229 51.6986C21.5887 51.6986 12.3053 42.4152 12.3053 30.981C12.3053 19.5469 21.5887 10.2635 33.0229 10.2635C44.457 10.2635 53.7404 19.5469 53.7404 30.981C53.7404 42.4152 44.457 51.6986 33.0229 51.6986Z" fill="#F6BE25"/>
</g>
</g>
<g id="Clip path group_18">
<mask id="mask17_0_4" style="mask-type:luminance" maskUnits="userSpaceOnUse" x="0" y="0" width="110" height="56">
<g id="SVGID_2__18">
<path id="Vector_38" d="M0 0H109.468V56H0V0Z" fill="white"/>
</g>
</mask>
<g mask="url(#mask17_0_4)">
<path id="Vector_39" fill-rule="evenodd" clip-rule="evenodd" d="M33.0228 51.6169C21.6159 51.6169 12.3597 42.3607 12.3597 30.9538C12.3597 19.5469 21.6159 10.2907 33.0228 10.2907C44.4298 10.2907 53.6859 19.5469 53.6859 30.9538C53.6859 42.3607 44.4298 51.6169 33.0228 51.6169Z" fill="#F6BE25"/>
</g>
</g>
<g id="Clip path group_19">
<mask id="mask18_0_4" style="mask-type:luminance" maskUnits="userSpaceOnUse" x="0" y="0" width="110" height="56">
<g id="SVGID_2__19">
<path id="Vector_40" d="M0 0H109.468V56H0V0Z" fill="white"/>
</g>
</mask>
<g mask="url(#mask18_0_4)">
<path id="Vector_41" fill-rule="evenodd" clip-rule="evenodd" d="M32.9956 51.5352C21.5887 51.5352 12.3597 42.3063 12.3597 30.8994C12.3597 19.4925 21.5887 10.2635 32.9956 10.2635C44.4025 10.2635 53.6315 19.5197 53.6315 30.8994C53.6315 42.3063 44.4025 51.5352 32.9956 51.5352Z" fill="#F6BE25"/>
</g>
</g>
<g id="Clip path group_20">
<mask id="mask19_0_4" style="mask-type:luminance" maskUnits="userSpaceOnUse" x="0" y="0" width="110" height="56">
<g id="SVGID_2__20">
<path id="Vector_42" d="M0 0H109.468V56H0V0Z" fill="white"/>
</g>
</mask>
<g mask="url(#mask19_0_4)">
<path id="Vector_43" fill-rule="evenodd" clip-rule="evenodd" d="M32.9956 51.4808C21.6159 51.4808 12.4142 42.2518 12.4142 30.8721C12.4142 19.4925 21.6432 10.2907 32.9956 10.2907C44.3753 10.2907 53.5771 19.5197 53.5771 30.8721C53.5771 42.2518 44.3481 51.4808 32.9956 51.4808Z" fill="#F6BE25"/>
</g>
</g>
<g id="Clip path group_21">
<mask id="mask20_0_4" style="mask-type:luminance" maskUnits="userSpaceOnUse" x="0" y="0" width="110" height="56">
<g id="SVGID_2__21">
<path id="Vector_44" d="M0 0H109.468V56H0V0Z" fill="white"/>
</g>
</mask>
<g mask="url(#mask20_0_4)">
<path id="Vector_45" fill-rule="evenodd" clip-rule="evenodd" d="M32.9684 51.3991C21.6159 51.3991 12.4142 42.1974 12.4142 30.8449C12.4142 19.4925 21.6159 10.2907 32.9684 10.2907C44.3209 10.2907 53.5226 19.4925 53.5226 30.8449C53.5226 42.1974 44.3209 51.3991 32.9684 51.3991Z" fill="#F6BE25"/>
</g>
</g>
<g id="Clip path group_22">
<mask id="mask21_0_4" style="mask-type:luminance" maskUnits="userSpaceOnUse" x="0" y="0" width="110" height="56">
<g id="SVGID_2__22">
<path id="Vector_46" d="M0 0H109.468V56H0V0Z" fill="white"/>
</g>
</mask>
<g mask="url(#mask21_0_4)">
<path id="Vector_47" fill-rule="evenodd" clip-rule="evenodd" d="M32.9412 51.3175C21.6159 51.3175 12.4142 42.1429 12.4142 30.7905C12.4142 19.4652 21.5887 10.2635 32.9412 10.2635C44.2664 10.2635 53.4682 19.438 53.4682 30.7905C53.4682 42.1429 44.2936 51.3175 32.9412 51.3175Z" fill="#F6BE25"/>
</g>
</g>
<g id="Clip path group_23">
<mask id="mask22_0_4" style="mask-type:luminance" maskUnits="userSpaceOnUse" x="0" y="0" width="110" height="56">
<g id="SVGID_2__23">
<path id="Vector_48" d="M0 0H109.468V56H0V0Z" fill="white"/>
</g>
</mask>
<g mask="url(#mask22_0_4)">
<path id="Vector_49" fill-rule="evenodd" clip-rule="evenodd" d="M32.9412 51.2358C21.6432 51.2358 12.4686 42.0613 12.4686 30.7632C12.4686 19.4652 21.6432 10.2907 32.9412 10.2907C44.2392 10.2907 53.4137 19.4652 53.4137 30.7632C53.4137 42.0885 44.2392 51.2358 32.9412 51.2358Z" fill="#F6BE25"/>
</g>
</g>
<g id="Clip path group_24">
<mask id="mask23_0_4" style="mask-type:luminance" maskUnits="userSpaceOnUse" x="0" y="0" width="110" height="56">
<g id="SVGID_2__24">
<path id="Vector_50" d="M0 0H109.468V56H0V0Z" fill="white"/>
</g>
</mask>
<g mask="url(#mask23_0_4)">
<path id="Vector_51" fill-rule="evenodd" clip-rule="evenodd" d="M32.914 51.1813C21.6159 51.1813 12.4686 42.034 12.4686 30.736C12.4686 19.438 21.6159 10.2907 32.914 10.2907C44.212 10.2907 53.3593 19.438 53.3593 30.736C53.3593 42.034 44.212 51.1813 32.914 51.1813Z" fill="#F6BE25"/>
</g>
</g>
<g id="Clip path group_25">
<mask id="mask24_0_4" style="mask-type:luminance" maskUnits="userSpaceOnUse" x="0" y="0" width="110" height="56">
<g id="SVGID_2__25">
<path id="Vector_52" d="M0 0H109.468V56H0V0Z" fill="white"/>
</g>
</mask>
<g mask="url(#mask24_0_4)">
<path id="Vector_53" fill-rule="evenodd" clip-rule="evenodd" d="M32.914 51.0997C21.6432 51.0997 12.5231 41.9524 12.5231 30.6816C12.5231 19.4108 21.6704 10.2907 32.914 10.2907C44.1847 10.2907 53.3048 19.438 53.3048 30.6816C53.3048 41.9524 44.1847 51.0997 32.914 51.0997Z" fill="#F6BE25"/>
</g>
</g>
<g id="Clip path group_26">
<mask id="mask25_0_4" style="mask-type:luminance" maskUnits="userSpaceOnUse" x="0" y="0" width="110" height="56">
<g id="SVGID_2__26">
<path id="Vector_54" d="M0 0H109.468V56H0V0Z" fill="white"/>
</g>
</mask>
<g mask="url(#mask25_0_4)">
<path id="Vector_55" fill-rule="evenodd" clip-rule="evenodd" d="M32.8867 51.018C21.6432 51.018 12.5231 41.8979 12.5231 30.6544C12.5231 19.4108 21.6432 10.2907 32.8867 10.2907C44.1303 10.2907 53.2504 19.4108 53.2504 30.6544C53.2504 41.8979 44.1303 51.018 32.8867 51.018Z" fill="#FCEE1F"/>
</g>
</g>
<g id="Clip path group_27">
<mask id="mask26_0_4" style="mask-type:luminance" maskUnits="userSpaceOnUse" x="0" y="0" width="110" height="56">
<g id="SVGID_2__27">
<path id="Vector_56" d="M0 0H109.468V56H0V0Z" fill="white"/>
</g>
</mask>
<g mask="url(#mask26_0_4)">
<path id="Vector_57" fill-rule="evenodd" clip-rule="evenodd" d="M32.8867 50.9635C21.6704 50.9635 12.5503 41.8707 12.5503 30.6271C12.5503 19.4108 21.6432 10.2907 32.8867 10.2907C44.1031 10.2907 53.2231 19.3836 53.2231 30.6271C53.1959 41.8435 44.1031 50.9635 32.8867 50.9635Z" fill="#FCE721"/>
</g>
</g>
<g id="Clip path group_28">
<mask id="mask27_0_4" style="mask-type:luminance" maskUnits="userSpaceOnUse" x="0" y="0" width="110" height="56">
<g id="SVGID_2__28">
<path id="Vector_58" d="M0 0H109.468V56H0V0Z" fill="white"/>
</g>
</mask>
<g mask="url(#mask27_0_4)">
<path id="Vector_59" fill-rule="evenodd" clip-rule="evenodd" d="M32.8595 50.8819C21.6432 50.8819 12.5775 41.789 12.5775 30.5999C12.5775 19.3836 21.6704 10.3179 32.8595 10.3179C44.0758 10.3179 53.1415 19.4108 53.1415 30.5999C53.1415 41.789 44.0758 50.8819 32.8595 50.8819Z" fill="#FCE721"/>
</g>
</g>
<g id="Clip path group_29">
<mask id="mask28_0_4" style="mask-type:luminance" maskUnits="userSpaceOnUse" x="0" y="0" width="110" height="56">
<g id="SVGID_2__29">
<path id="Vector_60" d="M0 0H109.468V56H0V0Z" fill="white"/>
</g>
</mask>
<g mask="url(#mask28_0_4)">
<path id="Vector_61" fill-rule="evenodd" clip-rule="evenodd" d="M32.8595 50.8002C21.6704 50.8002 12.6048 41.7346 12.6048 30.5455C12.6048 19.3563 21.6704 10.2907 32.8595 10.2907C44.0486 10.2907 53.1142 19.3563 53.1142 30.5455C53.1142 41.7346 44.0486 50.8002 32.8595 50.8002Z" fill="#FCE721"/>
</g>
</g>
<g id="Clip path group_30">
<mask id="mask29_0_4" style="mask-type:luminance" maskUnits="userSpaceOnUse" x="0" y="0" width="110" height="56">
<g id="SVGID_2__30">
<path id="Vector_62" d="M0 0H109.468V56H0V0Z" fill="white"/>
</g>
</mask>
<g mask="url(#mask29_0_4)">
<path id="Vector_63" fill-rule="evenodd" clip-rule="evenodd" d="M32.8323 50.7185C21.6704 50.7185 12.632 41.6801 12.632 30.491C12.632 19.3291 21.6704 10.2907 32.8323 10.2907C43.9942 10.2907 53.0326 19.3291 53.0326 30.491C53.0598 41.6801 43.9942 50.7185 32.8323 50.7185Z" fill="#FCE721"/>
</g>
</g>
<g id="Clip path group_31">
<mask id="mask30_0_4" style="mask-type:luminance" maskUnits="userSpaceOnUse" x="0" y="0" width="110" height="56">
<g id="SVGID_2__31">
<path id="Vector_64" d="M0 0H109.468V56H0V0Z" fill="white"/>
</g>
</mask>
<g mask="url(#mask30_0_4)">
<path id="Vector_65" fill-rule="evenodd" clip-rule="evenodd" d="M32.8323 50.6641C21.6976 50.6641 12.6592 41.6257 12.6592 30.491C12.6592 19.3563 21.6976 10.3179 32.8323 10.3179C43.9669 10.3179 53.0053 19.3563 53.0053 30.491C53.0053 41.6257 43.9669 50.6641 32.8323 50.6641Z" fill="#FCE721"/>
</g>
</g>
<g id="Clip path group_32">
<mask id="mask31_0_4" style="mask-type:luminance" maskUnits="userSpaceOnUse" x="0" y="0" width="110" height="56">
<g id="SVGID_2__32">
<path id="Vector_66" d="M0 0H109.468V56H0V0Z" fill="white"/>
</g>
</mask>
<g mask="url(#mask31_0_4)">
<path id="Vector_67" fill-rule="evenodd" clip-rule="evenodd" d="M32.8051 50.5824C21.6704 50.5824 12.6592 41.5712 12.6592 30.4366C12.6592 19.3291 21.6704 10.2907 32.8051 10.2907C43.9397 10.2907 52.9509 19.3019 52.9509 30.4366C52.9509 41.5712 43.9397 50.5824 32.8051 50.5824Z" fill="#FCE721"/>
</g>
</g>
<g id="Clip path group_33">
<mask id="mask32_0_4" style="mask-type:luminance" maskUnits="userSpaceOnUse" x="0" y="0" width="110" height="56">
<g id="SVGID_2__33">
<path id="Vector_68" d="M0 0H109.468V56H0V0Z" fill="white"/>
</g>
</mask>
<g mask="url(#mask32_0_4)">
<path id="Vector_69" fill-rule="evenodd" clip-rule="evenodd" d="M32.8051 50.5007C21.6976 50.5007 12.7137 41.4895 12.7137 30.4093C12.7137 19.3019 21.7248 10.3179 32.8051 10.3179C43.9125 10.3179 52.8965 19.3019 52.8965 30.4093C52.8965 41.5168 43.8853 50.5007 32.8051 50.5007Z" fill="#FCE721"/>
</g>
</g>
<g id="Clip path group_34">
<mask id="mask33_0_4" style="mask-type:luminance" maskUnits="userSpaceOnUse" x="0" y="0" width="110" height="56">
<g id="SVGID_2__34">
<path id="Vector_70" d="M0 0H109.468V56H0V0Z" fill="white"/>
</g>
</mask>
<g mask="url(#mask33_0_4)">
<path id="Vector_71" fill-rule="evenodd" clip-rule="evenodd" d="M52.842 30.3821C52.842 41.4623 43.858 50.4463 32.7778 50.4463C21.6976 50.4463 12.7137 41.4623 12.7137 30.3821C12.7137 19.3019 21.6976 10.3179 32.7778 10.3179C43.858 10.3179 52.842 19.3019 52.842 30.3821Z" fill="#FCEE1F"/>
</g>
</g>
<g id="Clip path group_35">
<mask id="mask34_0_4" style="mask-type:luminance" maskUnits="userSpaceOnUse" x="0" y="0" width="110" height="56">
<g id="SVGID_2__35">
<path id="Vector_72" d="M0 0H109.468V56H0V0Z" fill="white"/>
</g>
</mask>
<g mask="url(#mask34_0_4)">
<path id="Vector_73" fill-rule="evenodd" clip-rule="evenodd" d="M43.8308 26.9791L43.8853 26.9519L43.9125 26.9246L43.9669 26.8702L43.9942 26.843L44.0486 26.7885L44.1303 26.7069L44.2392 26.598L44.3209 26.4891L44.4025 26.4074L44.4297 26.3802L44.5114 26.2713L44.6203 26.1624L44.7292 26.0535L44.8109 25.9446L44.9198 25.8357L45.0015 25.754L45.0831 25.6723L45.1103 25.6179L45.192 25.6996L45.2465 25.8085L45.3009 25.9446L45.3826 26.0535L45.437 26.1896L45.4915 26.3529L45.5459 26.4891L45.6004 26.6524L45.6821 26.8158L45.7365 26.9519V26.9791L45.791 27.1152L45.8182 27.1424L45.8726 27.2786V27.3058L45.9543 27.4419L46.036 27.578V27.6053L46.1176 27.7141L46.1449 27.7414L46.2265 27.8503L46.2538 27.8775L46.3354 27.9592L46.3899 28.0136L46.4988 28.0681L46.5532 28.1225L46.6349 28.1497L46.7166 28.177L46.8255 28.2314H46.9071L47.0433 28.2586H47.1522L47.2066 28.2314H47.5061L47.615 28.2042H47.7511L47.8872 28.177H47.9144L48.0233 28.1497L48.0506 28.1225L48.1867 28.0953L48.3228 28.0408H48.35L48.4861 27.9864L48.6223 27.9319L48.6495 27.9047L48.7584 27.823L48.7856 27.7958L48.9217 27.7414V27.7141L49.0306 27.6325L49.0578 27.6053L49.1667 27.4964L49.194 27.4419L49.2756 27.333L49.3029 27.3058L49.3845 27.1697L49.4118 27.1152L49.4662 26.9791L49.4934 26.9246L49.5207 26.7885V26.7341L49.5479 26.5707L49.5751 26.5163V26.0535L49.5479 26.0263L49.5207 25.7812V25.754L49.439 25.5362V25.4818L49.3573 25.264L49.3301 25.2368L49.2212 25.019V24.9917L49.0851 24.7739L49.0578 24.7467L48.9217 24.5289L48.8945 24.5017L48.7312 24.2839V24.2567L48.5406 24.0117L48.3228 23.7667L48.105 23.5216L47.86 23.2494L47.615 22.9772L47.37 22.6777L47.1249 22.4054L46.8799 22.1332L46.6621 21.8337L46.4716 21.5887L46.281 21.3165L46.1176 21.0442L45.9815 20.7992L45.8454 20.527L45.7365 20.2547L45.6548 19.9825L45.5732 19.7375L45.5187 19.4652L45.4915 19.193V18.6757L45.5187 18.4307L45.5732 18.1857L45.6276 17.9679L45.7093 17.7229L45.791 17.4779L45.8999 17.2601L46.036 17.0151L46.1993 16.7973L46.3627 16.5795L46.526 16.3617L46.7438 16.1711L46.9616 15.9806L47.2066 15.7628L47.4516 15.5994L47.7239 15.4088L47.9961 15.2727L48.2956 15.1094L48.6223 14.9733L48.9762 14.8644L49.3301 14.7282L49.684 14.6466L50.0651 14.5649L50.4735 14.5105L50.9091 14.456L51.3447 14.4288H52.1614L52.5425 14.456L52.9509 14.4832L53.332 14.5377L53.7404 14.5921L54.1215 14.6738L54.5299 14.7555L54.911 14.8644L55.2922 15.0005L55.6733 15.1366L56.0272 15.2727L56.3811 15.4361L56.7078 15.5994L56.7623 15.6539L56.5717 16.3345L55.2649 17.6412L55.2105 17.614L54.911 17.4507H54.8838L54.6116 17.3418L54.3393 17.2329H54.3121L54.0671 17.1512H54.0399L53.7948 17.0967L53.7676 17.0695L53.5226 17.0423H53.4954L53.2776 17.0151H52.7331L52.5153 17.0423H52.4881L52.2703 17.0967L52.2431 17.124L52.0525 17.1784H52.0253L51.8619 17.2601L51.8075 17.2873L51.6714 17.369L51.6441 17.4234L51.508 17.5323L51.4536 17.5596L51.3447 17.6957L51.3174 17.7229L51.2086 17.8862L51.1813 17.9135L51.1269 18.0768L51.0997 18.104L51.0452 18.2946V18.3491L50.9908 18.5124V19.0569L51.0452 19.2747V19.3019L51.0997 19.5197V19.5469L51.1813 19.7375L51.2086 19.7919L51.2902 19.9825V20.0097L51.3991 20.2003L51.4263 20.2275L51.5352 20.4181H51.5625L51.6986 20.6087V20.6359L51.8619 20.8264L51.9981 21.017L52.0253 21.0442L52.1886 21.2348L52.352 21.4526L52.5425 21.6432L52.7059 21.861L52.8964 22.0788L53.087 22.2965L53.2504 22.5143L53.3865 22.7049L53.5498 22.8955L53.7132 23.086L53.8765 23.3038L54.0126 23.4944L54.176 23.685L54.3121 23.9028L54.4754 24.0933L54.6116 24.3111L54.7477 24.5289L54.8566 24.7467L54.9655 24.9645L55.0472 25.1823L55.1288 25.4001L55.2105 25.6451L55.2377 25.8901L55.2922 26.1351V26.598L55.2649 26.8158L55.2377 27.0335L55.1833 27.2513L55.1288 27.4691L55.0472 27.6869L54.9383 27.9047L54.8294 28.0953L54.7205 28.3131L54.5843 28.5036L54.421 28.7214L54.2577 28.912L54.0671 29.1026L53.8765 29.2659L53.6587 29.4565L53.4137 29.6198L53.1687 29.7832L52.8964 29.9465L52.597 30.0826L52.2975 30.2188L51.9708 30.3549L51.6169 30.4638L51.2358 30.5727L50.8546 30.6544L50.4463 30.736L50.0379 30.8177L49.5751 30.8721L49.1123 30.8994L48.6223 30.9266H47.2066L46.7438 30.8994L46.3082 30.8449L45.8454 30.8177L45.4098 30.7632L44.9742 30.6816L44.5386 30.5999L44.1031 30.491L43.6947 30.3821L43.3136 30.2732L42.9324 30.1371L42.5785 29.9737L42.5513 29.9465L43.8308 26.9791Z" fill="white"/>
</g>
</g>
<g id="Clip path group_36">
<mask id="mask35_0_4" style="mask-type:luminance" maskUnits="userSpaceOnUse" x="0" y="0" width="110" height="56">
<g id="SVGID_2__36">
<path id="Vector_74" d="M0 0H109.468V56H0V0Z" fill="white"/>
</g>
</mask>
<g mask="url(#mask35_0_4)">
<path id="Vector_75" fill-rule="evenodd" clip-rule="evenodd" d="M56.8984 16.5523L55.3194 18.1313C54.3938 17.614 53.686 17.3962 52.9781 17.3962C51.9981 17.3962 51.3447 17.9135 51.3447 18.7846C51.3447 20.0369 52.5153 20.9353 53.5226 22.2965C54.3666 23.4127 55.6461 24.665 55.6461 26.3802C55.6461 28.8303 53.3865 31.335 48.105 31.335C45.9543 31.335 43.6675 31.0355 42.034 30.1371L43.5041 26.7069C43.613 26.7613 44.9742 25.0734 45.0831 25.1279C45.9815 25.6179 45.9815 27.8775 47.0433 27.8775C47.3972 27.8775 49.1668 27.8503 49.1668 26.3257C49.1668 25.2368 48.2956 24.3384 47.0433 22.9499C45.8454 21.5887 45.0559 20.3909 45.0559 18.9208C45.0559 16.4978 47.4516 14.0476 51.753 14.0476C53.5226 14.0476 55.7005 14.5105 57.1706 15.4905L56.8984 16.5523Z" fill="#231F20"/>
</g>
</g>
<g id="Clip path group_37">
<mask id="mask36_0_4" style="mask-type:luminance" maskUnits="userSpaceOnUse" x="0" y="0" width="110" height="56">
<g id="SVGID_2__37">
<path id="Vector_76" d="M0 0H109.468V56H0V0Z" fill="white"/>
</g>
</mask>
<g mask="url(#mask36_0_4)">
<path id="Vector_77" fill-rule="evenodd" clip-rule="evenodd" d="M57.8512 27.7958L57.8785 27.4419L57.9057 27.0608L57.9601 26.6524L58.0146 26.2168L58.0963 25.7812L59.9475 16.4978L61.2543 15.1911L64.7662 16.5523L63.0238 25.4273L62.9966 25.6723V25.6996L62.9694 25.9446V25.9718L62.9422 26.244L62.9694 26.4891L62.9966 26.5163L63.0238 26.7069V26.7613L63.0783 26.9246L63.1055 26.9519L63.1599 27.088V27.1424L63.2416 27.2786L63.2688 27.3058L63.3233 27.4147L63.3505 27.4419L63.4322 27.5508L63.4594 27.578L63.5411 27.6597L63.5955 27.6869L63.6772 27.7686H63.7044L63.7861 27.823L63.8405 27.8503L63.9222 27.9047H63.9494L64.0311 27.9319L64.0856 27.9592L64.1672 27.9864H64.1945L64.2761 28.0136H64.7662L64.7934 27.9864L65.0112 27.9592H65.0656L65.2834 27.9047L65.3106 27.8775L65.5284 27.7958H65.5557L65.7735 27.6869H65.8007L65.9912 27.5508H66.0185L66.209 27.4147L66.2363 27.3875L66.3996 27.2241H66.4268L66.5902 27.0335H66.6174L66.7535 26.843L66.7808 26.8158L66.9169 26.6252H66.9441L67.0802 26.4074L67.2163 26.1896L67.2436 26.1624L67.3525 25.9446L67.4886 25.6996L67.5975 25.4545L67.7064 25.2095V25.1823L67.8153 24.9373L67.8969 24.6923V24.665L67.9786 24.42L68.0603 24.175V24.1478L68.142 23.9028L68.1964 23.6578L68.2236 23.6305L68.2781 23.3855L68.3325 23.1405L68.387 22.8955L69.6393 16.4978L70.946 15.1911L74.4852 16.5523L73.2056 29.1842L71.8444 30.5455H66.8896L67.3797 28.3675L67.4341 28.1497L66.8896 27.6869L66.3452 28.3131L66.0185 28.6398L65.6918 28.9392L65.3651 29.2115L65.0384 29.4565L64.6845 29.7015L64.3306 29.8921L63.9767 30.0826L63.6228 30.246L63.2961 30.4093L62.9422 30.5455L62.5882 30.6543L62.2343 30.736L61.9076 30.7905L61.5537 30.8449L61.2543 30.8721L60.9276 30.8994L60.6009 30.8721L60.2742 30.8449L60.0019 30.8177L59.7297 30.7632L59.4847 30.7088L59.2397 30.6271L59.0491 30.5182L58.8585 30.4093L58.6952 30.3004L58.5591 30.1643L58.423 30.0282L58.2868 29.8648L58.2052 29.6743L58.0963 29.4565L58.0146 29.2387L57.9601 28.9937L57.9057 28.7214L57.8785 28.4492L57.8512 28.1497V27.7958Z" fill="white"/>
</g>
</g>
<g id="Clip path group_38">
<mask id="mask37_0_4" style="mask-type:luminance" maskUnits="userSpaceOnUse" x="0" y="0" width="110" height="56">
<g id="SVGID_2__38">
<path id="Vector_78" d="M0 0H109.468V56H0V0Z" fill="white"/>
</g>
</mask>
<g mask="url(#mask37_0_4)">
<path id="Vector_79" fill-rule="evenodd" clip-rule="evenodd" d="M66.9985 28.2859L66.9441 28.2314C65.2017 30.2732 62.806 31.2805 60.9548 31.2805C58.6407 31.2805 57.579 30.3277 57.4701 28.1497C57.4701 27.4419 57.579 26.6252 57.7151 25.7268L59.5936 16.3072L61.1726 14.7282L65.229 16.3072L63.405 25.4818C63.3777 25.7268 63.3505 25.9718 63.3505 26.2168C63.4866 27.4419 64.14 27.6325 64.5211 27.6325C66.6446 27.6325 67.6247 24.8556 68.0331 22.841L69.3126 16.3072L70.8916 14.7282L74.948 16.3072L73.614 29.3476L72.035 30.9266H66.4268L66.9985 28.2859Z" fill="#231F20"/>
</g>
</g>
<g id="Clip path group_39">
<mask id="mask38_0_4" style="mask-type:luminance" maskUnits="userSpaceOnUse" x="0" y="0" width="110" height="56">
<g id="SVGID_2__39">
<path id="Vector_80" d="M0 0H109.468V56H0V0Z" fill="white"/>
</g>
</mask>
<g mask="url(#mask38_0_4)">
<path id="Vector_81" fill-rule="evenodd" clip-rule="evenodd" d="M77.6704 16.4978L78.9772 15.1911L82.4618 16.5523L81.9446 18.8391L81.8901 19.0841L82.4074 19.5469L82.9791 18.9208L83.2786 18.5941L83.6053 18.2946L83.9592 18.0224L84.2859 17.7773L84.6125 17.5323L84.9665 17.3418L85.3204 17.1512L85.6743 16.9606L86.0282 16.8245L86.3821 16.6884L86.736 16.5795L87.0627 16.4978L87.4166 16.4161L87.7433 16.3889L88.07 16.3617L88.3967 16.3345H88.7234L89.0229 16.3617L89.3223 16.4161L89.5673 16.4434L89.8123 16.525L90.0301 16.6067L90.2207 16.6884L90.4113 16.7973L90.5746 16.9062L90.7107 17.0151L90.8469 17.1512L90.9558 17.3145L91.0647 17.4779L91.1736 17.6412L91.228 17.859L91.3097 18.0768L91.3641 18.2946L91.4186 18.5396L91.4458 18.8119L91.473 19.0841V19.438L91.4458 19.7919L91.4186 20.1731L91.3641 20.5542L91.3097 20.9898L91.2008 21.4526L90.9285 29.1842L89.5673 30.5455H84.5853L86.3004 21.8065L86.3277 21.6432V21.6159L86.3549 21.4254V20.9898L86.3277 20.7448V20.7175L86.3004 20.527L86.2732 20.4725L86.2188 20.3092V20.282L86.1643 20.1458L86.1371 20.1186L86.0827 19.9825L86.0554 19.928L85.9737 19.8192L85.9465 19.7919L85.8649 19.683L85.8376 19.6558L85.756 19.5741L85.7287 19.5469L85.6471 19.4652L85.5926 19.438L85.5109 19.3836H85.4837L85.402 19.3291H85.3748L85.2659 19.2747H85.2387L85.157 19.2474H85.1026L85.0209 19.2202H84.5581L84.5309 19.2474L84.2859 19.2747H84.2586L84.0136 19.3291L83.9864 19.3563L83.7686 19.438H83.7414L83.5508 19.5469H83.5236L83.333 19.683H83.2786L83.1152 19.8192L83.088 19.8464L82.8974 20.0097L82.7341 20.1731L82.7069 20.2003L82.5435 20.3909L82.3802 20.5814V20.6087L82.244 20.8264H82.2168L82.0807 21.0442L81.9446 21.2893L81.8357 21.5343L81.7268 21.7793H81.6996L81.5907 22.0243L81.509 22.2965L81.4001 22.5416V22.5688L81.3184 22.8138L81.2368 23.0588V23.086L81.1823 23.3311L81.1006 23.5761L81.0462 23.8211V23.8483L80.9917 24.0933L80.9101 24.3656L81.2095 29.2115L79.8755 30.5455H74.8935L77.6704 16.4978Z" fill="white"/>
</g>
</g>
<g id="Clip path group_40">
<mask id="mask39_0_4" style="mask-type:luminance" maskUnits="userSpaceOnUse" x="0" y="0" width="110" height="56">
<g id="SVGID_2__40">
<path id="Vector_82" d="M0 0H109.468V56H0V0Z" fill="white"/>
</g>
</mask>
<g mask="url(#mask39_0_4)">
<path id="Vector_83" fill-rule="evenodd" clip-rule="evenodd" d="M82.3257 18.948L82.3802 19.0024C84.1225 16.9606 86.5182 15.9533 88.3967 15.9533C90.7924 15.9533 91.7725 17.0151 91.8542 19.0841C91.8814 19.7919 91.7997 20.5814 91.6091 21.507L91.3097 29.3476L89.7307 30.9266H84.0953L85.9193 21.7521C85.9737 21.507 85.9737 21.262 85.9737 21.017C85.8376 19.7919 85.1842 19.6014 84.8303 19.6014C82.7069 19.6014 81.7268 22.3782 81.3184 24.3928L81.6179 29.3476L80.0389 30.9266H74.4035L77.3165 16.3072L78.8955 14.7282L82.9246 16.3072L82.3257 18.948Z" fill="#231F20"/>
</g>
</g>
<g id="Clip path group_41">
<mask id="mask40_0_4" style="mask-type:luminance" maskUnits="userSpaceOnUse" x="0" y="0" width="110" height="56">
<g id="SVGID_2__41">
<path id="Vector_84" d="M0 0H109.468V56H0V0Z" fill="white"/>
</g>
</mask>
<g mask="url(#mask40_0_4)">
<path id="Vector_85" fill-rule="evenodd" clip-rule="evenodd" d="M50.9635 33.6218L52.2975 32.2878L59.7297 33.8396H60.1108L60.4375 33.8668L60.737 33.894L61.0365 33.9485L61.3087 34.0029L61.5537 34.0846L61.7987 34.1663L62.0165 34.2752L62.2343 34.3841L62.4249 34.4929L62.6155 34.6291L62.7788 34.7652L62.9421 34.9013L63.0783 35.0374L63.1872 35.1736L63.2961 35.3369L63.405 35.5002L63.4866 35.6636L63.5683 35.8269L63.65 35.9903L63.7044 36.1536L63.7589 36.317L63.8133 36.4803L63.8405 36.6437L63.8678 36.807L63.895 36.9703V37.3787L63.8678 37.5965L63.8405 37.7871L63.8133 37.9776L63.7589 38.141L63.7044 38.2771L63.65 38.386L63.5683 38.4949L63.4866 38.6038L63.405 38.6855L63.3233 38.7671L63.2144 38.8488L63.1055 38.9033L62.9966 38.9577L62.8877 39.0122L62.7516 39.0666L62.6155 39.121L62.4793 39.1755L62.3432 39.2299L62.1799 39.2844L62.0165 39.3388L61.8532 39.3933L61.6898 39.4477L61.5265 39.5022L61.3631 39.5566L61.1998 39.6111L61.0365 39.6655L60.4375 39.9105L64.63 46.4171L63.3777 47.6694H57.7423L56.1361 42.1429H54.176L54.666 46.3354L53.332 47.6694H48.2139L50.9635 33.6218ZM55.5372 35.5275H57.7968L57.9874 35.5547L58.0418 35.5819L58.2324 35.6364L58.2868 35.6636L58.4502 35.7453L58.4774 35.7725L58.6407 35.8814L58.668 35.9086L58.8041 36.0175L58.8313 36.0447L58.9674 36.1808L58.9947 36.2081L59.1035 36.3442L59.1308 36.3714L59.2397 36.5348L59.2669 36.562L59.3486 36.7253L59.3758 36.7798L59.4575 36.9431V36.9703L59.5119 37.1609V37.1881L59.5391 37.3787V37.9504L59.5119 38.1682V38.2227L59.4575 38.4404V38.4677L59.3758 38.6855L59.3486 38.7127L59.2397 38.9033L59.2124 38.9305L59.1035 39.121L59.0763 39.1483L58.9402 39.3388L58.913 39.3661L58.7769 39.5294L58.7496 39.5566L58.5863 39.72L58.5591 39.7472L58.3957 39.8833L58.3685 39.9105L58.1779 40.0194H58.1507L57.9601 40.1283L57.9329 40.1556L57.7423 40.2372H57.7151L57.5246 40.3189H57.4973L57.3068 40.3734H57.2795L57.089 40.4006H54.5027L55.5372 35.5275Z" fill="white"/>
</g>
</g>
<g id="Clip path group_42">
<mask id="mask41_0_4" style="mask-type:luminance" maskUnits="userSpaceOnUse" x="0" y="0" width="110" height="56">
<g id="SVGID_2__42">
<path id="Vector_86" d="M0 0H109.468V56H0V0Z" fill="white"/>
</g>
</mask>
<g mask="url(#mask41_0_4)">
<path id="Vector_87" fill-rule="evenodd" clip-rule="evenodd" d="M47.6422 48.0506H53.4137L54.9927 46.4716L54.5299 42.5241H55.755L57.3612 48.0506H63.4322L65.0112 46.4716L60.9003 40.0739C62.3704 39.4205 64.2489 39.6928 64.2489 37.1337C64.2489 35.5819 63.1327 33.404 59.8114 33.404L52.1886 31.825L50.6096 33.404L47.6422 48.0506ZM55.8367 35.9358H57.4973C58.3957 35.9358 59.158 36.7798 59.158 37.6782C59.158 39.0394 57.9601 40.0467 56.8167 40.0467H54.9927L55.8367 35.9358Z" fill="#231F20"/>
</g>
</g>
<g id="Clip path group_43">
<mask id="mask42_0_4" style="mask-type:luminance" maskUnits="userSpaceOnUse" x="0" y="0" width="110" height="56">
<g id="SVGID_2__43">
<path id="Vector_88" d="M0 0H109.468V56H0V0Z" fill="white"/>
</g>
</mask>
<g mask="url(#mask42_0_4)">
<path id="Vector_89" fill-rule="evenodd" clip-rule="evenodd" d="M68.5503 33.6218L69.8571 32.2878L73.4506 33.6762L72.1167 46.281L70.7282 47.6694H65.6918L68.5503 33.6218Z" fill="white"/>
</g>
</g>
<g id="Clip path group_44">
<mask id="mask43_0_4" style="mask-type:luminance" maskUnits="userSpaceOnUse" x="0" y="0" width="110" height="56">
<g id="SVGID_2__44">
<path id="Vector_90" d="M0 0H109.468V56H0V0Z" fill="white"/>
</g>
</mask>
<g mask="url(#mask43_0_4)">
<path id="Vector_91" fill-rule="evenodd" clip-rule="evenodd" d="M69.7482 31.8522L73.859 33.4312L72.4706 46.4716L70.8916 48.0506H65.2018L68.1692 33.4312L69.7482 31.8522Z" fill="#231F20"/>
</g>
</g>
<g id="Clip path group_45">
<mask id="mask44_0_4" style="mask-type:luminance" maskUnits="userSpaceOnUse" x="0" y="0" width="110" height="56">
<g id="SVGID_2__45">
<path id="Vector_92" d="M0 0H109.468V56H0V0Z" fill="white"/>
</g>
</mask>
<g mask="url(#mask44_0_4)">
<path id="Vector_93" fill-rule="evenodd" clip-rule="evenodd" d="M74.703 42.279V41.8162L74.7574 41.3534L74.8391 40.9178L74.9208 40.5095L75.0297 40.1011L75.1385 39.6928L75.2747 39.3116L75.438 38.9577L75.6014 38.6038L75.7647 38.2499L75.9825 37.9232L76.1731 37.6237L76.3909 37.3243L76.6359 37.0248L76.8809 36.7526L77.1259 36.4803L77.3981 36.2353L77.6704 35.9903L77.9426 35.7453L78.2421 35.5275L78.5416 35.3369L78.841 35.1191L79.1405 34.9285L79.44 34.7652L79.7666 34.6018L80.0933 34.4657L80.3928 34.3024L80.7195 34.1935L81.0462 34.0574L81.3729 33.9757L81.6996 33.8668L82.0262 33.7851L82.3257 33.7035L82.6524 33.649L82.9519 33.5946L83.2513 33.5401L83.5508 33.5129L83.8503 33.4857L84.1497 33.4584H84.8576L85.2659 33.4857L85.6743 33.5129L86.0282 33.5673L86.4093 33.6218L86.736 33.7035L87.0627 33.7851L87.3622 33.8668L87.6616 33.9757L87.9611 34.0846L88.2333 34.1935L88.5328 34.3296L88.5873 34.3568V34.9558L87.3077 36.2353L87.1716 36.1536H87.1444L86.9538 36.0719H86.9266L86.736 35.9903H86.7088L86.491 35.9358L86.4638 35.9086L86.2188 35.8542L85.9737 35.7997H85.9465L85.6743 35.7725H85.6471L85.3748 35.7453H85.3476L85.0753 35.718H85.0481L84.7214 35.7453H84.6942L84.3675 35.7725H84.3403L84.0408 35.8542H84.0136L83.7141 35.9358L83.6869 35.9631L83.3875 36.0719H83.3602L83.0608 36.2081L82.7613 36.3714L82.7341 36.3986L82.4618 36.562L82.1896 36.7526L82.1624 36.7798L81.9174 36.9976L81.6723 37.2154L81.6451 37.2426L81.4273 37.4876V37.5148L81.2095 37.7598L81.1823 37.7871L80.9917 38.0593L80.8012 38.3588L80.6378 38.6582L80.6106 38.6855L80.4745 38.9849L80.4473 39.0122L80.3384 39.3116L80.3111 39.3388L80.2022 39.6655V39.6928L80.0933 40.0194V40.0467L80.0389 40.3734L80.0117 40.4006L79.9572 40.7273V40.7545L79.93 41.1084V42.1701L79.9572 42.1974L79.9844 42.4968L80.0389 42.7691V42.7963L80.0933 43.0413V43.0685L80.175 43.3136L80.2567 43.5314V43.5586L80.3384 43.7764L80.3656 43.8036L80.4473 43.9669L80.4745 43.9942L80.5561 44.1575L80.5834 44.1847L80.6923 44.3481H80.7195L80.8284 44.4842V44.5114L80.9645 44.6475L80.9917 44.6748L81.1006 44.7837H81.1279L81.264 44.8926V44.9198L81.4001 45.0015H81.4273L81.5634 45.0831L81.5907 45.1104L81.7268 45.1648L81.8629 45.2193L81.8901 45.2465L82.0262 45.2737V45.3009L82.1624 45.3281H82.1896L82.3257 45.3554V45.3826L82.4618 45.4098H82.6252L82.7341 45.437H82.8702L82.9791 45.4643H83.1152L83.3875 45.437H83.4147L83.6869 45.4098H83.7141L84.0136 45.3826V45.3554L84.3131 45.3009H84.3403L84.6125 45.2465L84.912 45.1648L85.1842 45.0831L85.4565 45.0015V44.9742L85.7015 44.8926L85.9465 44.8109L86.001 44.7837L87.9611 45.5187L86.8449 46.6077L86.4366 46.771L85.9193 46.9616L85.402 47.1249L84.8848 47.2883L84.3675 47.4516L83.8503 47.5877L83.333 47.6966L82.8158 47.8055L82.2985 47.8872L81.8085 47.9689L81.2912 48.0233L80.8284 48.0506L80.3384 48.0778L79.93 48.0506L79.5216 48.0233L79.1405 47.9689L78.7866 47.9144L78.4599 47.8328L78.106 47.7239L77.8065 47.615L77.507 47.5061L77.2348 47.3427L76.9626 47.2066L76.7175 47.016L76.4998 46.8527L76.282 46.6349L76.0642 46.4443L75.8736 46.2265L75.7103 45.9815L75.5469 45.7637L75.4108 45.5187L75.2747 45.2465L75.1385 44.9742L75.0569 44.702L74.948 44.4298L74.8663 44.1303L74.8119 43.8308L74.7574 43.5314L74.7302 43.2319L74.703 42.9052L74.6757 42.5785L74.703 42.279Z" fill="white"/>
</g>
</g>
<g id="Clip path group_46">
<mask id="mask45_0_4" style="mask-type:luminance" maskUnits="userSpaceOnUse" x="0" y="0" width="110" height="56">
<g id="SVGID_2__46">
<path id="Vector_94" d="M0 0H109.468V56H0V0Z" fill="white"/>
</g>
</mask>
<g mask="url(#mask45_0_4)">
<path id="Vector_95" fill-rule="evenodd" clip-rule="evenodd" d="M88.6689 45.3554L87.0899 46.9344C84.8848 47.8055 82.4618 48.4589 80.3656 48.4589C76.0914 48.4589 74.2402 45.5459 74.3218 42.2518C74.5396 35.718 80.6106 33.0773 84.4492 33.0773C86.4638 33.0773 87.7978 33.4857 89.0228 34.139V35.1463L87.4439 36.7253C86.8177 36.4259 86.1099 36.1536 85.1026 36.1536C82.5435 36.1536 80.3656 38.7399 80.3656 41.544C80.3656 44.7564 82.2713 45.1104 83.1424 45.1104C84.1497 45.1104 85.3476 44.702 86.0554 44.4025L88.6689 45.3554Z" fill="#231F20"/>
</g>
</g>
<g id="Clip path group_47">
<mask id="mask46_0_4" style="mask-type:luminance" maskUnits="userSpaceOnUse" x="0" y="0" width="110" height="56">
<g id="SVGID_2__47">
<path id="Vector_96" d="M0 0H109.468V56H0V0Z" fill="white"/>
</g>
</mask>
<g mask="url(#mask46_0_4)">
<path id="Vector_97" fill-rule="evenodd" clip-rule="evenodd" d="M88.914 42.6057L88.9412 42.1157L88.9956 41.6257L89.0501 41.1629L89.1317 40.7273L89.2406 40.2917L89.3495 39.8833L89.4857 39.475L89.6218 39.0938L89.7851 38.7127L89.9485 38.3588L90.139 38.0049L90.3568 37.6782L90.5746 37.3787L90.7924 37.0792L91.0374 36.7798L91.2824 36.5075L91.5275 36.2353L91.7997 35.9903L92.072 35.7453L92.3442 35.5275L92.6437 35.3097L92.9431 35.1191L93.2426 34.9285L93.5421 34.738L93.8687 34.5746L94.1954 34.4113L94.5221 34.2752L94.8488 34.139L95.1755 34.0301L95.5022 33.9212L95.8289 33.8123L96.1556 33.7307L96.4823 33.649L96.8089 33.5946L97.1356 33.5401L97.4623 33.4857L97.7618 33.4584L98.0613 33.4312L98.3607 33.404H98.9869L99.3136 33.4312L99.6403 33.4584L99.9669 33.4857L100.266 33.5129L100.566 33.5673L100.865 33.6218L101.138 33.7035L101.41 33.7851L101.655 33.8668L101.9 33.9757L102.145 34.0846L102.363 34.1935L102.58 34.3296L102.771 34.4657L102.962 34.6018L103.125 34.7652L103.288 34.9285L103.424 35.0919L103.533 35.2825L103.642 35.473L103.724 35.6636L103.806 35.8814L103.86 36.0992L103.914 36.3442L103.942 36.6164V36.8887L103.914 37.1337L103.887 37.3787L103.833 37.5965L103.724 37.8415L103.615 38.0593L103.506 38.2771L103.37 38.4949L103.207 38.6855L103.043 38.876L102.853 39.0666L102.635 39.2572L102.417 39.4477L102.172 39.6111L101.9 39.7744L101.628 39.9378L101.328 40.1011L101.029 40.2372L100.702 40.3734L100.375 40.5095L100.049 40.6184L99.6947 40.7273L99.3408 40.8362L98.9597 40.9178L98.5785 40.9995L98.1974 41.0812L97.8162 41.1629L97.4351 41.2173L97.0267 41.2718L96.6184 41.3262L96.21 41.3534L95.8017 41.3807H94.2227L94.1954 41.8162V42.8235L94.2227 42.9596V42.9869L94.2499 43.123V43.1502L94.2771 43.2863V43.3136L94.3043 43.4497V43.4769L94.3588 43.613V43.6403L94.4132 43.7764V43.8036L94.4677 43.9397V43.9669L94.5493 44.1031V44.1303L94.631 44.2664L94.6582 44.2936L94.7671 44.4298L94.7944 44.457L94.9033 44.5659L94.9305 44.5931L95.0666 44.702L95.0938 44.7292L95.2299 44.8381L95.2572 44.8653L95.4205 44.947L95.4477 44.9742L95.6111 45.0559L95.6383 45.0831L95.8289 45.1648H95.8561L96.0739 45.2193H96.1011L96.3189 45.2737H96.3461L96.5912 45.3009H96.6184L96.8906 45.3281H97.6257L97.9524 45.3009H97.9796L98.3063 45.2465H98.3335L98.6602 45.192H98.6874L98.9869 45.1104L99.2863 45.0287H99.3136L99.613 44.9198L99.9125 44.8109L100.212 44.6748L100.511 44.5386L100.811 44.4025L101.138 44.2664L101.328 44.1847L103.316 44.7292L102.254 45.791L101.873 45.9815L101.437 46.1993L100.974 46.4171L100.511 46.6349L100.021 46.8255L99.5314 47.016L99.0141 47.2066L98.4968 47.37L97.9524 47.5333L97.4079 47.6694L96.8634 47.7783L96.3189 47.8872L95.7472 47.9689L95.1755 48.0233L94.6038 48.0506L94.0321 48.0778H93.6782L93.3243 48.0506L92.9976 47.9961L92.6981 47.9417L92.3986 47.86L92.1264 47.7511L91.8542 47.6422L91.6091 47.5061L91.3641 47.37L91.1463 47.2338L90.9285 47.0705L90.738 46.9071L90.5474 46.7438L90.3841 46.5532L90.2207 46.3627L90.0574 46.1721L89.9212 45.9543L89.7851 45.7365L89.649 45.5187L89.5401 45.3009L89.4312 45.0831L89.3495 44.8653L89.2679 44.6475L89.1862 44.4298L89.1317 44.212L89.0773 43.9942L89.0229 43.7764L88.9684 43.5586L88.9412 43.368L88.914 43.1774V42.6057ZM94.5493 38.9305L94.631 38.631L94.7127 38.3588V38.3316L94.8216 38.0593L94.9305 37.7871V37.7598L95.0394 37.5148V37.4876L95.1755 37.2426V37.2154L95.3116 36.9703V36.9431L95.4477 36.7253L95.475 36.6981L95.6383 36.4803L95.8017 36.2897L95.8289 36.2625L96.0195 36.0719L96.0467 36.0447L96.2372 35.8814L96.2645 35.8542L96.455 35.718L96.4823 35.6908L96.7001 35.5547H96.7273L96.9451 35.4458L96.9723 35.4186L97.2173 35.3369H97.2445L97.4896 35.2552H97.544L97.8162 35.2008H97.8435L98.1429 35.1736H98.4424L98.6602 35.2008H98.6874L98.878 35.2552H98.9324L99.123 35.3369L99.1774 35.3641L99.3408 35.4458L99.368 35.473L99.5041 35.5819L99.5586 35.6091L99.6947 35.718L99.7219 35.7453L99.8308 35.8814L99.858 35.9358L99.9397 36.0719L99.9669 36.1264L100.049 36.2897L100.076 36.3442L100.13 36.5075V36.562L100.158 36.7526V37.0248L100.13 37.2698V37.297L100.076 37.5148V37.5693L99.9942 37.7871L99.9669 37.8143L99.858 38.0049L99.8308 38.0593L99.7219 38.2499L99.6947 38.2771L99.5586 38.4404L99.5314 38.4677L99.368 38.631L99.3408 38.6582L99.1502 38.7944L99.123 38.8216L98.9052 38.9577L98.878 38.9849L98.633 39.121H98.6057L98.3607 39.2299H98.3335L98.0613 39.3388H98.034L97.7346 39.4205H97.7073L97.3807 39.475H97.3534L96.9995 39.5294H96.9723L96.5912 39.5839H96.5639L96.1556 39.6111L95.7472 39.6383H95.3116L94.3588 39.6111L94.5493 38.9305Z" fill="white"/>
</g>
</g>
<g id="Clip path group_48">
<mask id="mask47_0_4" style="mask-type:luminance" maskUnits="userSpaceOnUse" x="0" y="0" width="110" height="56">
<g id="SVGID_2__48">
<path id="Vector_98" d="M0 0H109.468V56H0V0Z" fill="white"/>
</g>
</mask>
<g mask="url(#mask47_0_4)">
<path id="Vector_99" fill-rule="evenodd" clip-rule="evenodd" d="M104.078 44.4842L101.301 43.7219C99.8853 44.3753 98.7691 44.947 97.2445 44.947C94.2771 44.947 94.5221 42.4424 94.5766 41.789C99.2047 41.8979 104.241 40.1011 104.241 36.9431C104.241 34.139 101.682 33.0773 98.5785 33.0773C94.5221 33.0773 88.7234 35.7453 88.5056 42.6057C88.4511 44.5659 89.7579 48.4045 94.0321 48.4045C97.1901 48.4045 100.239 47.2338 102.472 46.0632L104.078 44.4842ZM98.1702 35.5819C99.1774 35.5819 99.8308 36.2081 99.7492 37.052C99.613 38.631 98.0068 39.4477 94.8488 39.3388C95.3388 37.3515 96.3189 35.718 98.1702 35.5819Z" fill="#231F20"/>
</g>
</g>
<g id="Clip path group_49">
<mask id="mask48_0_4" style="mask-type:luminance" maskUnits="userSpaceOnUse" x="0" y="0" width="110" height="56">
<g id="SVGID_2__49">
<path id="Vector_100" d="M0 0H109.468V56H0V0Z" fill="white"/>
</g>
</mask>
<g mask="url(#mask48_0_4)">
<path id="Vector_101" fill-rule="evenodd" clip-rule="evenodd" d="M56.8984 16.5523C55.9728 16.035 55.2649 15.8172 54.5571 15.8172C53.577 15.8172 52.9237 16.3345 52.9237 17.2056C52.9237 18.4579 54.0943 19.3563 55.1016 20.7175C55.9455 21.8337 57.2251 23.086 57.2251 24.8012C57.2251 27.2513 54.9655 29.756 49.684 29.756C47.5333 29.756 45.2465 29.4565 43.613 28.5581L45.0831 25.1279C46.0088 25.6451 47.4244 26.2713 48.6223 26.2713C48.9762 26.2713 50.7457 26.244 50.7457 24.7195C50.7457 23.6305 49.8746 22.7321 48.6223 21.3437C47.4244 19.9825 46.6349 18.7574 46.6349 17.3145C46.6349 14.8916 49.0306 12.4414 53.332 12.4414C55.1016 12.4414 57.2795 12.9042 58.7769 13.8843L56.8984 16.5523Z" fill="white"/>
</g>
</g>
<g id="Clip path group_50">
<mask id="mask49_0_4" style="mask-type:luminance" maskUnits="userSpaceOnUse" x="0" y="0" width="110" height="56">
<g id="SVGID_2__50">
<path id="Vector_102" d="M0 0H109.468V56H0V0Z" fill="white"/>
</g>
</mask>
<g mask="url(#mask49_0_4)">
<path id="Vector_103" fill-rule="evenodd" clip-rule="evenodd" d="M44.9198 24.5834L45.5459 24.9101L45.791 25.0462L46.0632 25.1823L46.3354 25.2912L46.6077 25.4273L46.9071 25.5362L47.2066 25.6179L47.5061 25.7268L47.8055 25.7812L48.0778 25.8357L48.3772 25.8629L48.6495 25.8901H48.9217L49.0034 25.8629H49.1123L49.2212 25.8357H49.3029L49.439 25.7812H49.5207L49.6296 25.7268L49.7385 25.6996L49.8474 25.6451L49.929 25.5907L50.0107 25.5362L50.0924 25.4545L50.174 25.4001L50.2285 25.3184L50.2829 25.2095L50.3102 25.1279L50.3374 25.019L50.3646 24.8828V24.5561L50.3374 24.3656L50.2829 24.175L50.2013 23.9844L50.1196 23.7939L49.9835 23.5761L49.8474 23.3855L49.684 23.1677L49.5207 22.9227L49.3029 22.7049L49.0851 22.4599L48.8673 22.1877L48.6223 21.9154L48.35 21.6159L48.105 21.3437V21.3165L47.86 21.0442V21.017L47.6422 20.7448H47.615L47.4244 20.4453L47.2066 20.1731V20.1458L47.0433 19.8736L47.016 19.8464L46.8799 19.5741L46.8527 19.5469L46.7166 19.2747V19.2474L46.5805 18.9752V18.948L46.4716 18.6485V18.6213L46.3899 18.3491V18.3218L46.3354 18.0224V17.9951L46.3082 17.6684L46.281 17.3418V17.0423L46.3082 17.0151L46.3354 16.7428V16.7156L46.3899 16.4706V16.4434L46.4443 16.1711V16.1439L46.5532 15.8717V15.8444L46.6621 15.5994V15.5722L46.7982 15.3272V15.3L46.9616 15.0549V15.0277L47.1249 14.7827L47.1522 14.7555L47.3155 14.5105H47.3427L47.5333 14.2654L47.5605 14.2382L47.7783 14.0204L48.0233 13.8026H48.0506L48.2956 13.5848V13.5576L48.5678 13.367H48.595L48.8945 13.1765L49.2212 12.9859L49.5479 12.8226H49.5751L49.9018 12.6864L49.929 12.6592L50.2829 12.5503L50.3102 12.5231L50.6641 12.4142H50.6913L51.0724 12.3053H51.0997L51.508 12.2236H51.5352L51.9436 12.142H51.9708L52.4064 12.1147L52.4336 12.0875L52.8692 12.0603H53.7676L54.176 12.0875L54.5843 12.1147H54.6116L55.0199 12.1692L55.4283 12.2509H55.4555L55.8639 12.3325L56.2995 12.4142L56.7078 12.5231L56.735 12.5503L57.1162 12.6592H57.1434L57.5246 12.8226H57.5518L57.9329 12.9859L58.2868 13.1492H58.314L58.668 13.3398L58.6952 13.367L59.3758 13.8026L57.2251 16.7701L57.0073 17.0423L56.4356 16.7156L56.1633 16.5795L55.9183 16.4706L55.6733 16.3889L55.4283 16.3072L55.2105 16.28L54.9927 16.2256L54.7749 16.1983H54.5843L54.3938 16.2256H54.2032L54.0671 16.28L53.931 16.3072L53.7948 16.3889L53.6859 16.4434L53.6043 16.525L53.5226 16.6067L53.4682 16.6884L53.4137 16.7973L53.3865 16.9334L53.3593 17.0423L53.332 17.2056L53.3593 17.369L53.3865 17.5323L53.4137 17.7229L53.4954 17.8862L53.5771 18.0496L53.6587 18.2402L53.7676 18.4035L53.9037 18.5941L54.0399 18.7574L54.2032 18.948L54.3666 19.1386L54.5299 19.3563L54.7205 19.5469L54.8838 19.7647L55.0744 19.9825L55.2649 20.2275L55.4555 20.4725L55.5916 20.6359L55.7278 20.8264L55.8911 21.017L56.0544 21.2348L56.2178 21.4254V21.4526L56.3811 21.6432L56.5445 21.861L56.6806 22.0788H56.7078L56.8439 22.3238L56.9801 22.5416V22.5688L57.1162 22.7866L57.1434 22.8138L57.2523 23.0588L57.3612 23.3038V23.3311L57.4429 23.5761L57.4701 23.6033L57.5246 23.8755L57.5518 23.9028L57.6062 24.175L57.6334 24.4473V25.0734L57.6062 25.3184V25.3456L57.579 25.5907V25.6179L57.5246 25.8629L57.4973 25.8901L57.4429 26.1079V26.1351L57.334 26.3802V26.4074L57.2251 26.6252V26.6524L57.1162 26.8974L57.089 26.9246L56.9528 27.1424V27.1697L56.7895 27.3875L56.6262 27.6053L56.5989 27.6325L56.4084 27.8503V27.8775L56.1906 28.0681V28.0953L55.9728 28.2859H55.9456L55.7278 28.4764L55.7005 28.5036L55.4283 28.6942L55.1561 28.8576L55.1288 28.8848L54.8566 29.0481H54.8294L54.5027 29.2115L54.176 29.3748H54.1488L53.8221 29.5109H53.7948L53.4409 29.6198H53.4137L53.0326 29.7287L53.0053 29.756L52.6242 29.8376H52.597L52.1886 29.9193L52.1614 29.9465L51.7258 30.001H51.6986L51.263 30.0554H51.2358L50.7457 30.1099L50.2285 30.1371H49.2212L48.7584 30.1099L48.2956 30.0826L47.8055 30.0554L47.3427 30.001L46.8799 29.9465H46.8527L46.4171 29.8648H46.3899L45.9543 29.7832L45.5187 29.6743H45.4915L45.0831 29.5654H45.0559L44.6475 29.4293L44.6203 29.402L44.2392 29.2659H44.212L43.8308 29.1026L43.8036 29.0754L43.123 28.7487L44.9198 24.5834Z" fill="#FCEE1F"/>
</g>
</g>
<g id="Clip path group_51">
<mask id="mask50_0_4" style="mask-type:luminance" maskUnits="userSpaceOnUse" x="0" y="0" width="110" height="56">
<g id="SVGID_2__51">
<path id="Vector_104" d="M0 0H109.468V56H0V0Z" fill="white"/>
</g>
</mask>
<g mask="url(#mask50_0_4)">
<path id="Vector_105" fill-rule="evenodd" clip-rule="evenodd" d="M68.5775 26.7069L68.5231 26.6524C66.7807 28.6942 64.385 29.7015 62.5066 29.7015C60.1925 29.7015 59.1308 28.7487 59.0491 26.5707C59.0491 25.8629 59.158 25.0462 59.2941 24.1478L61.1726 14.7282H66.808L64.984 23.9028C64.9567 24.1478 64.9295 24.3928 64.9295 24.6378C65.0656 25.8629 65.719 26.0535 66.1001 26.0535C68.2236 26.0535 69.1765 23.2766 69.6121 21.262L70.8916 14.7282H76.527L73.614 29.3476H68.0058L68.5775 26.7069Z" fill="white"/>
</g>
</g>
<g id="Clip path group_52">
<mask id="mask51_0_4" style="mask-type:luminance" maskUnits="userSpaceOnUse" x="0" y="0" width="110" height="56">
<g id="SVGID_2__52">
<path id="Vector_106" d="M0 0H109.468V56H0V0Z" fill="white"/>
</g>
</mask>
<g mask="url(#mask51_0_4)">
<path id="Vector_107" fill-rule="evenodd" clip-rule="evenodd" d="M58.668 26.1896V25.7812L58.7224 25.4001V25.3729L58.7769 24.9645L58.8313 24.5289L58.913 24.0661L60.8459 14.3471H67.2708L65.3651 23.9844L65.3379 24.2022L65.3106 24.42V24.6106L65.3379 24.8012L65.3651 24.9645L65.4195 25.1006L65.4468 25.2095L65.5012 25.3184L65.5557 25.4001L65.6101 25.4545L65.6646 25.509L65.719 25.5362L65.7735 25.5907L65.8279 25.6179H65.8824L65.9096 25.6451H66.2907L66.4541 25.6179L66.6446 25.5634L66.8352 25.509L66.9985 25.4273L67.1619 25.3184L67.298 25.2095L67.4614 25.0734L67.5975 24.9373L67.7608 24.7739L67.8697 24.5834L68.0058 24.3928L68.142 24.2022L68.2509 23.9844L68.3598 23.7667L68.4686 23.5489L68.5775 23.3311L68.6592 23.086L68.7409 22.841L68.8226 22.596L68.9042 22.351L68.9587 22.106L69.0404 21.861L69.0948 21.6432L69.1492 21.3982L69.2037 21.1531L70.5377 14.3471H76.9626L73.9135 29.7287H67.4886L67.9242 27.823L67.788 27.9319L67.4341 28.2314L67.0802 28.5036H67.053L66.6991 28.7487L66.6719 28.7759L66.3179 28.9937H66.2907L65.9368 29.1842L65.9096 29.2115L65.5557 29.3748H65.5284L65.1473 29.5382V29.5654L64.7662 29.7015H64.7389L64.385 29.8104H64.3578L64.0039 29.9193H63.9767L63.6228 30.001H63.5955L63.2416 30.0554H63.2144L62.8877 30.0826H62.1254L61.7987 30.0554H61.7715L61.4448 30.001L61.1454 29.9465H61.1181L60.8459 29.8649H60.8187L60.5464 29.756H60.5192L60.2742 29.6471L60.247 29.6198L60.0292 29.5109L60.0019 29.4837L59.8114 29.3476L59.7842 29.3204L59.5936 29.157L59.5664 29.1298L59.403 28.9392L59.3758 28.912L59.2397 28.7214L59.2124 28.6942L59.1036 28.4764L59.0763 28.422L58.9674 28.2042V28.1497L58.8585 27.9047V27.8775L58.7769 27.6053V27.578L58.7224 27.2786V27.2513L58.668 26.9519V26.9246L58.6407 26.5707L58.668 26.1896Z" fill="#FCEE1F"/>
</g>
</g>
<g id="Clip path group_53">
<mask id="mask52_0_4" style="mask-type:luminance" maskUnits="userSpaceOnUse" x="0" y="0" width="110" height="56">
<g id="SVGID_2__53">
<path id="Vector_108" d="M0 0H109.468V56H0V0Z" fill="white"/>
</g>
</mask>
<g mask="url(#mask52_0_4)">
<path id="Vector_109" fill-rule="evenodd" clip-rule="evenodd" d="M83.9047 17.3418L83.9592 17.3962C85.7015 15.3544 88.0972 14.3471 89.9757 14.3471C92.3714 14.3471 93.3515 15.4088 93.4604 17.4779C93.4876 18.1857 93.4059 18.9752 93.2154 19.9008L91.3369 29.3204H85.7015L87.5255 20.1186C87.58 19.8736 87.58 19.6286 87.58 19.3836C87.4439 18.1585 86.7905 17.9679 86.4366 17.9679C84.3131 17.9679 83.333 20.7448 82.9247 22.7594L81.6451 29.2931H76.0097L78.9227 14.6738H84.5309L83.9047 17.3418Z" fill="white"/>
</g>
</g>
<g id="Clip path group_54">
<mask id="mask53_0_4" style="mask-type:luminance" maskUnits="userSpaceOnUse" x="0" y="0" width="110" height="56">
<g id="SVGID_2__54">
<path id="Vector_110" d="M0 0H109.468V56H0V0Z" fill="white"/>
</g>
</mask>
<g mask="url(#mask53_0_4)">
<path id="Vector_111" fill-rule="evenodd" clip-rule="evenodd" d="M78.5688 14.3471H84.9665L84.5309 16.2528L84.667 16.1439L84.6942 16.1167L85.0481 15.8444V15.8172L85.402 15.5722L85.4293 15.545L85.7832 15.3272V15.3L86.1643 15.0822L86.5455 14.8644L86.9266 14.6738H86.9538L87.3077 14.5105H87.335L87.6889 14.3743H87.7161L88.0972 14.2654L88.4784 14.1565L88.8595 14.0749H88.8867L89.2134 14.0204H89.2406L89.5946 13.9932H90.3296L90.6563 14.0204H90.6835L91.0102 14.0476L91.3097 14.1021L91.3369 14.1293L91.6091 14.1838L91.6364 14.211L91.8814 14.2927H91.9086L92.1536 14.4016L92.1809 14.4288L92.3986 14.5377L92.4259 14.5649L92.6164 14.6738L92.6437 14.701L92.807 14.8644L92.8342 14.8916L92.9976 15.0549L93.0248 15.0822L93.1609 15.2727L93.1881 15.3L93.3243 15.4905V15.5177L93.4332 15.7355L93.4604 15.7628L93.5421 15.9806V16.0078L93.6237 16.2528L93.651 16.28L93.7054 16.5523V16.5795L93.7598 16.8517L93.7871 17.1512V17.1784L93.8143 17.4779V18.2674L93.7871 18.6485L93.7598 18.6757L93.7326 19.0841V19.1113L93.651 19.5469L93.5693 20.0097L91.6364 29.7287H85.2115L87.1172 20.0914L87.1444 19.928V19.7647L87.1716 19.6014V19.4652L87.1444 19.2747L87.1172 19.1113L87.0627 18.9752L87.0083 18.8663L86.981 18.7574L86.9266 18.6757L86.8721 18.6213L86.8177 18.5668L86.7633 18.5124L86.7088 18.4852L86.6544 18.4579H86.5999L86.5455 18.4307H86.1915L86.001 18.4579L85.8376 18.5124L85.6471 18.5668L85.4837 18.6485L85.3204 18.7574L85.157 18.8663L85.0209 19.0024L84.8576 19.1386L84.7214 19.3019L84.5853 19.4925L84.4492 19.683L84.3403 19.8736L84.2314 20.0642L84.0953 20.282L84.0136 20.527L83.9047 20.7448L83.823 20.9898L83.7414 21.2348L83.6325 21.4798L83.578 21.7248L83.4964 21.9426L83.4419 22.2149L83.3875 22.4327L83.333 22.6777L83.2786 22.8955L81.9446 29.7287H75.5197L78.5688 14.3471Z" fill="#FCEE1F"/>
</g>
</g>
<g id="Clip path group_55">
<mask id="mask54_0_4" style="mask-type:luminance" maskUnits="userSpaceOnUse" x="0" y="0" width="110" height="56">
<g id="SVGID_2__55">
<path id="Vector_112" d="M0 0H109.468V56H0V0Z" fill="white"/>
</g>
</mask>
<g mask="url(#mask54_0_4)">
<path id="Vector_113" fill-rule="evenodd" clip-rule="evenodd" d="M49.2212 46.4716H54.9927L56.1089 40.9451H57.334L58.9402 46.4716H65.0384L62.5066 39.965C63.9767 39.2844 65.8279 38.1138 65.8279 35.5547C65.8279 34.0029 64.7117 31.825 61.3904 31.825H52.1886L49.2212 46.4716ZM57.4429 34.3568H59.1035C60.0019 34.3568 60.7642 35.2008 60.7642 36.0992C60.7642 37.4604 59.5664 38.4677 58.4229 38.4677H56.5989L57.4429 34.3568ZM75.4652 31.8522L72.4706 46.4716H66.7807L69.7482 31.8522H75.4652ZM88.6689 45.3554C86.4638 46.2265 84.0408 46.8799 81.9446 46.8799C77.6704 46.8799 75.8191 43.9669 75.9008 40.6728C76.1186 34.139 82.1896 31.4983 86.0282 31.4983C88.0156 31.4983 89.3768 31.9067 90.5746 32.56L88.9956 35.1463C88.3695 34.8469 87.6616 34.5474 86.6543 34.5474C84.0953 34.5474 81.9174 37.1337 81.9174 39.9378C81.9174 43.1502 83.823 43.5041 84.6942 43.5041C85.7015 43.5041 86.8994 43.0958 87.6072 42.7963L88.6689 45.3554ZM102.88 42.1429C101.464 42.7963 100.348 43.368 98.8235 43.368C95.8561 43.368 96.1011 40.8634 96.1556 40.21C100.784 40.3189 105.82 38.5221 105.82 35.3641C105.82 32.56 103.261 31.4983 100.158 31.4983C96.1011 31.4983 90.3024 34.1663 90.0846 41.0267C90.0301 42.9869 91.3369 46.8255 95.6111 46.8255C98.7691 46.8255 101.818 45.6548 104.051 44.4842L102.88 42.1429ZM99.7491 34.0029C100.756 34.0029 101.383 34.6291 101.328 35.473C101.192 37.052 99.5858 37.8687 96.4278 37.7598C96.9178 35.7725 97.8979 34.1118 99.7491 34.0029Z" fill="white"/>
</g>
</g>
<g id="Clip path group_56">
<mask id="mask55_0_4" style="mask-type:luminance" maskUnits="userSpaceOnUse" x="0" y="0" width="110" height="56">
<g id="SVGID_2__56">
<path id="Vector_114" d="M0 0H109.468V56H0V0Z" fill="white"/>
</g>
</mask>
<g mask="url(#mask55_0_4)">
<path id="Vector_115" fill-rule="evenodd" clip-rule="evenodd" d="M107.671 32.4784V31.9611H108.025C108.216 31.9611 108.406 31.9883 108.406 32.2061C108.406 32.4784 108.216 32.4784 107.998 32.4784H107.671ZM107.671 32.6962H107.971L108.406 33.4312H108.706L108.216 32.6962C108.461 32.6689 108.651 32.5328 108.651 32.2333C108.651 31.9067 108.461 31.7433 108.053 31.7433H107.399V33.4312H107.644V32.6962H107.671ZM107.971 34.0574C108.76 34.0574 109.468 33.4312 109.468 32.5873C109.468 31.7433 108.788 31.1172 107.971 31.1172C107.154 31.1172 106.474 31.7433 106.474 32.5873C106.474 33.4312 107.154 34.0574 107.971 34.0574ZM106.773 32.5873C106.773 31.8794 107.29 31.3622 107.971 31.3622C108.624 31.3622 109.169 31.8794 109.169 32.5873C109.169 33.2951 108.651 33.8123 107.971 33.8123C107.29 33.8123 106.773 33.2951 106.773 32.5873Z" fill="#231F20"/>
</g>
</g>
</g>
<defs>
<clipPath id="clip0_0_4">
<rect width="109.468" height="56" fill="white"/>
</clipPath>
</defs>
</svg>
