<svg data-v-5446c4e4="" xmlns="http://www.w3.org/2000/svg" xmlns:xlink="http://www.w3.org/1999/xlink" width="20.147" height="19.607" viewBox="0 0 20.147 19.607" preserveAspectRatio="xMidYMid meet" class="size-8 xl:size-10"><defs><clipPath id="clip-path-cutlery"><rect id="Rectangle_2294" data-name="Rectangle 2294" width="20.147" height="19.607" fill="none" stroke="currentColor" stroke-width="0.6"></rect></clipPath></defs><g id="Group_4984" data-name="Group 4984" clip-path="url(#clip-path-cutlery)"><path id="Path_1350" data-name="Path 1350" d="M12.274,11.286a4.585,4.585,0,1,0-7.373.032" transform="translate(0.528 0.528)" fill="none" stroke="currentColor" stroke-linecap="round" stroke-miterlimit="10" stroke-width="0.6"></path><path id="Path_1351" data-name="Path 1351" d="M11.024,13.117a6.871,6.871,0,1,0-7.4,0" transform="translate(1.778 1.779)" fill="none" stroke="currentColor" stroke-linecap="round" stroke-miterlimit="10" stroke-width="0.6"></path><path id="Path_1352" data-name="Path 1352" d="M6.7,8.136v2.208c0,1.685,1.124,1.143,1.124,2.074v4.6" transform="translate(-0.431 -0.937)" fill="none" stroke="currentColor" stroke-linecap="round" stroke-miterlimit="10" stroke-width="0.6"></path><path id="Path_1353" data-name="Path 1353" d="M13.837,17.019V14.582c0-.972-1.171-.406-1.171-2.164V9.308a1.172,1.172,0,0,1,1.171-1.172v6.446" transform="translate(-2.539 -0.937)" fill="none" stroke="currentColor" stroke-linecap="round" stroke-miterlimit="10" stroke-width="0.6"></path><path id="Path_1354" data-name="Path 1354" d="M9.565,8.136v2.208c0,1.685-1.124,1.143-1.124,2.074" transform="translate(-1.045 -0.937)" fill="none" stroke="currentColor" stroke-linecap="round" stroke-miterlimit="10" stroke-width="0.6"></path><line id="Line_585" data-name="Line 585" y2="2.208" transform="translate(7.396 7.199)" fill="none" stroke="currentColor" stroke-linecap="round" stroke-miterlimit="10" stroke-width="0.6"></line></g></svg>