<?xml version="1.0" encoding="UTF-8"?>
<svg id="Layer_1"  xmlns="http://www.w3.org/2000/svg" version="1.1" viewBox="0 0 600 600">
  <!-- Generator: Adobe Illustrator 29.2.1, SVG Export Plug-In . SVG Version: 2.1.0 Build 116)  -->
  <defs>
    <style>
      .st0 {
        fill: none;
        stroke-linecap: round;
        stroke-width: 12px;
      }

      .st0, .st1 {
        stroke: #fff;
        stroke-miterlimit: 10;
      }

      .st1 {
        fill: #d42e12;
        stroke-width: 4px;
      }
    </style>
  </defs>
  <circle class="st1" cx="307.8" cy="301.9" r="258.2"/>
  <path class="st0" d="M324.1,360.3l-17.2-16.7"/>
  <path class="st0" d="M170.8,445.2l35.7-35.8"/>
  <path class="st0" d="M339.8,350.1l-9.5-11.3"/>
  <path class="st0" d="M313.6,233.7c0-2.6,1-5,2.9-6.8,41-39.5,81.9-48.5,101.9-28.6,20.5,20.4,10.5,62.8-31.4,104.7l-88.2,88.1c-3.9,4-9.3,6.2-14.9,6.2h-64.7v-64.6c0-5.5,8.4-6.5,12.4-10.4l55.8-66.3c1.2-1.2,3.1-1.2,4.3,0,.6.6.9,1.4.9,2.2v11.4c0,1.7,1.4,3.1,3.1,3.1s1.6-.3,2.2-.9c10.1-10,15.8-23.7,15.8-37.9h0Z"/>
</svg>